<svg width="90" height="21" viewBox="0 0 90 21" fill="none" xmlns="http://www.w3.org/2000/svg">
<path d="M21.439 15.81H21.534V16H18.855V15.81H18.95C19.0387 15.81 19.121 15.772 19.197 15.696C19.273 15.62 19.3363 15.5313 19.387 15.43C19.4503 15.3287 19.4947 15.221 19.52 15.107C19.5453 14.9803 19.558 14.8663 19.558 14.765V4.638C19.558 4.54933 19.5453 4.448 19.52 4.334C19.4947 4.22 19.4503 4.11233 19.387 4.011C19.3363 3.90967 19.273 3.82733 19.197 3.764C19.121 3.688 19.0387 3.65 18.95 3.65H18.855V3.46H22.161C23.4277 3.46 24.403 3.707 25.087 4.201C25.7837 4.695 26.132 5.42333 26.132 6.386C26.132 6.86733 26.0497 7.29167 25.885 7.659C25.733 8.01367 25.524 8.324 25.258 8.59C24.992 8.84333 24.6753 9.05233 24.308 9.217C23.9533 9.369 23.5733 9.483 23.168 9.559L24.536 11.649C24.8653 12.1557 25.201 12.656 25.543 13.15C25.885 13.6313 26.2207 14.1317 26.55 14.651C26.6387 14.7777 26.7337 14.9107 26.835 15.05C26.949 15.1893 27.063 15.316 27.177 15.43C27.3037 15.544 27.4303 15.639 27.557 15.715C27.6963 15.7783 27.8357 15.81 27.975 15.81V16H27.158C26.6513 16 26.2333 15.8797 25.904 15.639C25.5873 15.3857 25.3213 15.0943 25.106 14.765C24.536 13.929 23.966 13.0803 23.396 12.219C22.8387 11.3577 22.2813 10.509 21.724 9.673C21.5847 9.66033 21.4327 9.64767 21.268 9.635C21.116 9.60967 20.9703 9.58433 20.831 9.559V14.765C20.831 14.8663 20.8437 14.9803 20.869 15.107C20.8943 15.221 20.9323 15.3287 20.983 15.43C21.0463 15.5313 21.1097 15.62 21.173 15.696C21.249 15.772 21.3377 15.81 21.439 15.81ZM20.831 4.106V8.932H20.926C21.0273 8.94467 21.1857 8.95733 21.401 8.97C21.629 8.97 21.9077 8.97 22.237 8.97C22.503 8.97 22.7817 8.932 23.073 8.856C23.377 8.76733 23.6557 8.628 23.909 8.438C24.175 8.23533 24.3903 7.97567 24.555 7.659C24.7323 7.34233 24.821 6.94333 24.821 6.462C24.821 5.98067 24.726 5.588 24.536 5.284C24.3587 4.98 24.1053 4.73933 23.776 4.562C23.4593 4.38467 23.073 4.26433 22.617 4.201C22.161 4.13767 21.6607 4.106 21.116 4.106H20.831ZM29.8757 15.81H29.9707C30.0721 15.81 30.1607 15.7783 30.2367 15.715C30.3127 15.639 30.3761 15.5503 30.4267 15.449C30.4901 15.3477 30.5344 15.24 30.5597 15.126C30.5977 15.012 30.6167 14.9043 30.6167 14.803V4.638C30.6167 4.54933 30.5977 4.448 30.5597 4.334C30.5344 4.22 30.4901 4.11233 30.4267 4.011C30.3761 3.90967 30.3127 3.82733 30.2367 3.764C30.1607 3.688 30.0721 3.65 29.9707 3.65H29.8757V3.46H37.1907V5.227H37.0007C36.9754 4.93567 36.8614 4.68233 36.6587 4.467C36.4561 4.239 36.1394 4.125 35.7087 4.125H31.8897V8.932H35.0437C35.3351 8.932 35.5757 8.84333 35.7657 8.666C35.9684 8.48867 36.0697 8.27967 36.0697 8.039H36.2597V10.414H36.0697C36.0697 10.186 35.9747 9.98967 35.7847 9.825C35.5947 9.66033 35.3477 9.578 35.0437 9.578H31.8897V15.335H36.0507C36.2914 15.335 36.5004 15.278 36.6777 15.164C36.8551 15.05 37.0007 14.917 37.1147 14.765C37.2414 14.6003 37.3301 14.4293 37.3807 14.252C37.4441 14.062 37.4757 13.9037 37.4757 13.777H37.6657V16H29.8757V15.81ZM47.5524 12.637C47.5524 13.2703 47.4258 13.815 47.1724 14.271C46.9191 14.7143 46.5898 15.0753 46.1844 15.354C45.7918 15.6327 45.3421 15.8353 44.8354 15.962C44.3414 16.0887 43.8474 16.152 43.3534 16.152C42.8468 16.152 42.4098 16.1013 42.0424 16C41.6751 15.8987 41.3394 15.8037 41.0354 15.715C40.8328 15.6517 40.6491 15.601 40.4844 15.563C40.3198 15.5123 40.1551 15.487 39.9904 15.487V13.321H40.1804C40.1804 13.8023 40.3008 14.1887 40.5414 14.48C40.7948 14.7587 41.0861 14.974 41.4154 15.126C41.7448 15.278 42.0741 15.3793 42.4034 15.43C42.7328 15.468 42.9734 15.487 43.1254 15.487C43.6701 15.487 44.1388 15.411 44.5314 15.259C44.9241 15.0943 45.2471 14.8853 45.5004 14.632C45.7538 14.366 45.9374 14.0747 46.0514 13.758C46.1781 13.4413 46.2414 13.1183 46.2414 12.789C46.2414 12.371 46.1528 12.0227 45.9754 11.744C45.7981 11.4527 45.5638 11.1993 45.2724 10.984C44.9938 10.7687 44.6708 10.585 44.3034 10.433C43.9361 10.281 43.5624 10.129 43.1824 9.977C42.7518 9.81233 42.3274 9.64133 41.9094 9.464C41.4914 9.28667 41.1178 9.07133 40.7884 8.818C40.4591 8.552 40.1931 8.24167 39.9904 7.887C39.7878 7.51967 39.6864 7.07 39.6864 6.538C39.6864 5.98067 39.7941 5.49933 40.0094 5.094C40.2248 4.676 40.5098 4.334 40.8644 4.068C41.2318 3.802 41.6434 3.60567 42.0994 3.479C42.5681 3.33967 43.0431 3.27 43.5244 3.27C43.8538 3.27 44.1641 3.29533 44.4554 3.346C44.7468 3.384 45.0254 3.43467 45.2914 3.498C45.5068 3.54867 45.7158 3.593 45.9184 3.631C46.1211 3.65633 46.3174 3.669 46.5074 3.669V5.626H46.3174C46.2921 4.96733 46.0324 4.524 45.5384 4.296C45.0444 4.05533 44.3604 3.935 43.4864 3.935C42.9798 3.935 42.5618 4.02367 42.2324 4.201C41.9158 4.36567 41.6624 4.57467 41.4724 4.828C41.2824 5.06867 41.1494 5.33467 41.0734 5.626C41.0101 5.90467 40.9784 6.15167 40.9784 6.367C40.9784 6.72167 41.0544 7.02567 41.2064 7.279C41.3711 7.53233 41.5864 7.754 41.8524 7.944C42.1184 8.134 42.4224 8.305 42.7644 8.457C43.1191 8.609 43.4864 8.75467 43.8664 8.894C44.2971 9.05867 44.7341 9.236 45.1774 9.426C45.6208 9.616 46.0134 9.85033 46.3554 10.129C46.7101 10.4077 46.9951 10.7497 47.2104 11.155C47.4384 11.5603 47.5524 12.0543 47.5524 12.637ZM49.9319 15.81H50.0269C50.1282 15.81 50.2169 15.7783 50.2929 15.715C50.3689 15.639 50.4322 15.5503 50.4829 15.449C50.5462 15.3477 50.5905 15.24 50.6159 15.126C50.6539 15.012 50.6729 14.9043 50.6729 14.803V4.638C50.6729 4.54933 50.6539 4.448 50.6159 4.334C50.5905 4.22 50.5462 4.11233 50.4829 4.011C50.4322 3.90967 50.3689 3.82733 50.2929 3.764C50.2169 3.688 50.1282 3.65 50.0269 3.65H49.9319V3.46H57.2469V5.227H57.0569C57.0315 4.93567 56.9175 4.68233 56.7149 4.467C56.5122 4.239 56.1955 4.125 55.7649 4.125H51.9459V8.932H55.0999C55.3912 8.932 55.6319 8.84333 55.8219 8.666C56.0245 8.48867 56.1259 8.27967 56.1259 8.039H56.3159V10.414H56.1259C56.1259 10.186 56.0309 9.98967 55.8409 9.825C55.6509 9.66033 55.4039 9.578 55.0999 9.578H51.9459V15.335H56.1069C56.3475 15.335 56.5565 15.278 56.7339 15.164C56.9112 15.05 57.0569 14.917 57.1709 14.765C57.2975 14.6003 57.3862 14.4293 57.4369 14.252C57.5002 14.062 57.5319 13.9037 57.5319 13.777H57.7219V16H49.9319V15.81ZM62.4976 15.81H62.5926V16H59.9136V15.81H60.0086C60.0972 15.81 60.1796 15.772 60.2556 15.696C60.3316 15.62 60.3949 15.5313 60.4456 15.43C60.5089 15.3287 60.5532 15.221 60.5786 15.107C60.6039 14.9803 60.6166 14.8663 60.6166 14.765V4.638C60.6166 4.54933 60.6039 4.448 60.5786 4.334C60.5532 4.22 60.5089 4.11233 60.4456 4.011C60.3949 3.90967 60.3316 3.82733 60.2556 3.764C60.1796 3.688 60.0972 3.65 60.0086 3.65H59.9136V3.46H63.2196C64.4862 3.46 65.4616 3.707 66.1456 4.201C66.8422 4.695 67.1906 5.42333 67.1906 6.386C67.1906 6.86733 67.1082 7.29167 66.9436 7.659C66.7916 8.01367 66.5826 8.324 66.3166 8.59C66.0506 8.84333 65.7339 9.05233 65.3666 9.217C65.0119 9.369 64.6319 9.483 64.2266 9.559L65.5946 11.649C65.9239 12.1557 66.2596 12.656 66.6016 13.15C66.9436 13.6313 67.2792 14.1317 67.6086 14.651C67.6972 14.7777 67.7922 14.9107 67.8936 15.05C68.0076 15.1893 68.1216 15.316 68.2356 15.43C68.3622 15.544 68.4889 15.639 68.6156 15.715C68.7549 15.7783 68.8942 15.81 69.0336 15.81V16H68.2166C67.7099 16 67.2919 15.8797 66.9626 15.639C66.6459 15.3857 66.3799 15.0943 66.1646 14.765C65.5946 13.929 65.0246 13.0803 64.4546 12.219C63.8972 11.3577 63.3399 10.509 62.7826 9.673C62.6432 9.66033 62.4912 9.64767 62.3266 9.635C62.1746 9.60967 62.0289 9.58433 61.8896 9.559V14.765C61.8896 14.8663 61.9022 14.9803 61.9276 15.107C61.9529 15.221 61.9909 15.3287 62.0416 15.43C62.1049 15.5313 62.1682 15.62 62.2316 15.696C62.3076 15.772 62.3962 15.81 62.4976 15.81ZM61.8896 4.106V8.932H61.9846C62.0859 8.94467 62.2442 8.95733 62.4596 8.97C62.6876 8.97 62.9662 8.97 63.2956 8.97C63.5616 8.97 63.8402 8.932 64.1316 8.856C64.4356 8.76733 64.7142 8.628 64.9676 8.438C65.2336 8.23533 65.4489 7.97567 65.6136 7.659C65.7909 7.34233 65.8796 6.94333 65.8796 6.462C65.8796 5.98067 65.7846 5.588 65.5946 5.284C65.4172 4.98 65.1639 4.73933 64.8346 4.562C64.5179 4.38467 64.1316 4.26433 63.6756 4.201C63.2196 4.13767 62.7192 4.106 62.1746 4.106H61.8896ZM72.4923 4.125C72.4923 4.201 72.5113 4.296 72.5493 4.41L75.8933 13.416L79.2373 4.315C79.25 4.28967 79.2626 4.25167 79.2753 4.201C79.288 4.15033 79.2943 4.11233 79.2943 4.087C79.2943 3.935 79.231 3.82733 79.1043 3.764C78.9903 3.688 78.8826 3.65 78.7813 3.65V3.46H80.8523V3.65C80.6623 3.65 80.485 3.70067 80.3203 3.802C80.1683 3.90333 80.048 4.07433 79.9593 4.315L75.6083 16.228L71.1623 4.372C71.0863 4.182 70.9723 4.01733 70.8203 3.878C70.681 3.73867 70.5036 3.66267 70.2883 3.65V3.46H72.9863V3.65C72.8723 3.65 72.7583 3.69433 72.6443 3.783C72.543 3.859 72.4923 3.973 72.4923 4.125ZM86.8937 15.81H86.9887C87.2927 15.81 87.4447 15.6707 87.4447 15.392C87.4447 15.2907 87.4257 15.183 87.3877 15.069L85.6777 10.452H82.3527L80.6997 14.993C80.6617 15.0943 80.6427 15.1893 80.6427 15.278C80.6427 15.4427 80.687 15.5757 80.7757 15.677C80.8644 15.7657 80.9594 15.81 81.0607 15.81H81.1557V16H79.0467V15.81H79.1417C79.3064 15.81 79.4647 15.715 79.6167 15.525C79.7814 15.3223 79.9144 15.088 80.0157 14.822L84.3667 3.232L88.6227 14.708C88.7114 14.9613 88.8317 15.2083 88.9837 15.449C89.1484 15.6897 89.3574 15.81 89.6107 15.81H89.7057V16H86.8937V15.81ZM82.5427 9.806H85.4687L84.0057 5.835L82.5427 9.806ZM82.8087 2.928L85.5067 0.895L86.0007 1.75L82.8657 3.042L82.8087 2.928Z" fill="white"/>
<path fill-rule="evenodd" clip-rule="evenodd" d="M8.5 1C8.5 6.66667 5.66667 9.5 0 9.5C5.56679 9.54037 8.40012 12.3737 8.5 18C8.5 12.3333 11.3333 9.5 17 9.5C11.3333 9.5 8.5 6.66667 8.5 1Z" fill="white"/>
</svg>
