<svg width="162" height="162" viewBox="0 0 162 162" fill="none" xmlns="http://www.w3.org/2000/svg">
<path d="M107.349 69.8253C111.875 65.2559 113.007 58.9643 109.873 55.8001C106.739 52.6359 100.507 53.779 95.9815 58.3485C91.7006 62.6707 90.4582 68.5321 92.9884 71.8317L87.081 77.796L85.8855 76.5889L57.6532 105.093L61.0498 108.523L89.2822 80.0181L88.0868 78.8111L93.9941 72.8468C97.2624 75.4016 103.068 74.1475 107.349 69.8253ZM87.1866 80.1037L61.1347 106.407L59.7494 105.008L85.8013 78.705L87.1866 80.1037ZM94.5474 71.2731C91.9681 68.6689 93.0628 63.3264 96.9875 59.3639C100.912 55.4014 106.204 54.2962 108.783 56.9003C111.362 59.5046 110.268 64.8473 106.343 68.8098C102.418 72.7722 97.1268 73.8774 94.5474 71.2731Z" fill="#FACE8D"/>
<path d="M69.6421 58.344C65.1226 53.7682 58.8997 52.6236 55.7701 55.7922C52.6404 58.9607 53.7711 65.2608 58.2907 69.8366C62.5656 74.1647 68.363 75.4208 71.6266 72.8626L77.5257 78.8351L76.3318 80.0439L104.525 108.587L107.917 105.153L79.7235 76.6097L78.5298 77.8183L72.6306 71.8458C75.1575 68.5415 73.9171 62.6721 69.6421 58.344ZM79.8082 78.7284L105.824 105.068L104.441 106.468L78.4248 80.129L79.8082 78.7284ZM71.0741 71.2864C68.4983 73.8942 63.2142 72.7874 59.295 68.8195C55.3758 64.8515 54.2826 59.5017 56.8583 56.894C59.4342 54.2861 64.7184 55.3927 68.6376 59.3607C72.5568 63.3286 73.6499 68.6786 71.0741 71.2864Z" fill="#FACE8D"/>
<path d="M79.8259 146.082L82.0812 157.933L80.6539 157.821L78.9761 148.181L78.8629 148.172L75.6468 157.425L74.0608 157.3L72.3377 147.657L72.2245 147.648L69.0537 156.904L67.6263 156.791L71.7148 145.442L73.1649 145.556L74.9946 155.002L75.0853 155.01L78.3759 145.968L79.8259 146.082Z" fill="#FACE8D"/>
<path d="M61.6457 143.32L57.5245 154.202L56.2067 153.703L58.042 148.857L52.2396 146.66L50.4043 151.506L49.0866 151.007L53.2078 140.124L54.5256 140.624L52.6823 145.491L58.4847 147.688L60.328 142.821L61.6457 143.32Z" fill="#FACE8D"/>
<path d="M46.5246 136.522L39.9495 146.122L34.1553 142.154L34.8616 141.123L39.4932 144.295L41.7149 141.051L37.3833 138.084L38.0896 137.053L42.4212 140.019L44.6557 136.757L39.9491 133.533L40.6554 132.502L46.5246 136.522Z" fill="#FACE8D"/>
<path d="M34.9459 127.622L26.3473 135.462L23.6982 132.556C23.0857 131.885 22.6976 131.229 22.5341 130.588C22.3678 129.951 22.389 129.347 22.5976 128.777C22.8062 128.208 23.1638 127.692 23.6704 127.23C24.177 126.768 24.7207 126.462 25.3014 126.312C25.8821 126.162 26.4797 126.199 27.0941 126.423C27.7057 126.649 28.3152 127.096 28.9226 127.762L31.0664 130.113L30.126 130.971L28.0128 128.653C27.5942 128.194 27.1902 127.886 26.8006 127.728C26.4085 127.568 26.0318 127.537 25.6707 127.636C25.3042 127.735 24.9488 127.941 24.6045 128.255C24.2602 128.568 24.018 128.907 23.8779 129.271C23.7378 129.634 23.7267 130.021 23.8445 130.432C23.9595 130.844 24.2288 131.283 24.6525 131.748L26.3216 133.578L33.9965 126.58L34.9459 127.622ZM27.3928 127.096L29.326 121.458L30.4286 122.667L28.4647 128.272L27.3928 127.096Z" fill="#FACE8D"/>
<path d="M25.1324 115.501L14.9671 121.164L11.5492 115.029L12.6412 114.421L15.3733 119.325L18.808 117.411L16.2529 112.825L17.3449 112.216L19.9 116.803L23.3546 114.878L20.5783 109.895L21.6703 109.286L25.1324 115.501Z" fill="#FACE8D"/>
<path d="M5.95765 94.9166L4.71792 95.0765L3.60178 86.4209L4.84151 86.261L5.30948 89.8901L15.6106 88.5618L15.7908 89.9593L5.48969 91.2876L5.95765 94.9166Z" fill="#FACE8D"/>
<path d="M15.1165 76.9345L14.954 78.4028L3.85821 72.8761L4.0182 71.4303L16.0539 68.4635L15.8914 69.9318L5.77294 72.3105L5.76294 72.4009L15.1165 76.9345ZM10.6586 75.8924L11.3136 69.974L12.556 70.1115L11.901 76.0299L10.6586 75.8924Z" fill="#FACE8D"/>
<path d="M11.6268 53.0751C11.0624 52.9425 10.5479 53.0497 10.0832 53.3966C9.61849 53.7436 9.26579 54.2481 9.02508 54.9103C8.84907 55.3944 8.77339 55.8465 8.79802 56.2666C8.82395 56.6831 8.93708 57.0426 9.13743 57.3452C9.33908 57.6442 9.61433 57.8571 9.96321 57.984C10.2551 58.0901 10.5313 58.1119 10.7918 58.0494C11.0501 57.9821 11.2887 57.8633 11.5078 57.693C11.7233 57.5215 11.9196 57.3309 12.0966 57.1212C12.27 56.9101 12.4203 56.7129 12.5475 56.5294L13.2503 55.5274C13.4286 55.2698 13.647 54.9905 13.9056 54.6895C14.1654 54.3849 14.4675 54.1139 14.8118 53.8763C15.1538 53.6339 15.5393 53.4717 15.9681 53.3898C16.3968 53.3079 16.8676 53.3601 17.3802 53.5465C17.9711 53.7613 18.4488 54.1103 18.8133 54.5934C19.179 55.073 19.3951 55.6593 19.4615 56.3525C19.5292 57.0422 19.4103 57.8071 19.1049 58.6472C18.8202 59.4304 18.4473 60.0626 17.9861 60.5439C17.5263 61.0216 17.0108 61.342 16.4397 61.5052C15.8698 61.6648 15.278 61.6572 14.6644 61.4825L15.1614 60.1155C15.5873 60.23 15.9795 60.2154 16.3381 60.0717C16.6944 59.9231 17.0063 59.6859 17.2739 59.36C17.5393 59.0292 17.7509 58.6467 17.9088 58.2124C18.0925 57.7069 18.1757 57.2232 18.1581 56.7614C18.1371 56.2983 18.0215 55.8956 17.8114 55.5532C17.5978 55.2095 17.2916 54.9652 16.8929 54.8203C16.5298 54.6883 16.1975 54.6823 15.8959 54.8024C15.5942 54.9225 15.3121 55.1222 15.0493 55.4015C14.7866 55.6808 14.5319 55.9933 14.2853 56.3389L13.4117 57.5448C12.8554 58.3099 12.2589 58.8588 11.622 59.1916C10.9852 59.5243 10.2983 59.5567 9.56139 59.2888C8.94908 59.0662 8.47527 58.7066 8.13995 58.2098C7.80237 57.7083 7.60944 57.1303 7.56116 56.4759C7.51062 55.8167 7.61217 55.1382 7.86583 54.4405C8.12207 53.7356 8.47622 53.155 8.92828 52.6987C9.37678 52.241 9.87642 51.931 10.4272 51.7685C10.9793 51.6024 11.5345 51.6108 12.0927 51.7936L11.6268 53.0751Z" fill="#FACE8D"/>
<path d="M14.8036 42.4891L13.7629 41.7967L18.5977 34.531L19.6383 35.2234L17.6112 38.2697L26.2582 44.0236L25.4776 45.1967L16.8306 39.4428L14.8036 42.4891Z" fill="#FACE8D"/>
<path d="M33.1896 35.2588L25.2353 26.7656L30.3611 21.9651L31.2156 22.8774L27.1183 26.7148L29.8059 29.5845L33.6378 25.9958L34.4923 26.9081L30.6604 30.4969L33.3636 33.3832L37.5273 29.4838L38.3817 30.3961L33.1896 35.2588Z" fill="#FACE8D"/>
<path d="M48.8854 10.032L50.4694 9.46674L57.4404 17.2347L57.5688 17.1889L58.0467 6.76254L59.6307 6.19726L63.5419 17.1566L62.3004 17.5997L59.3288 9.27314L59.2218 9.31133L58.7685 18.8601L57.5699 19.2879L51.1735 12.1836L51.0665 12.2218L54.038 20.5483L52.7965 20.9914L48.8854 10.032Z" fill="#FACE8D"/>
<path d="M71.5804 15.653L70.6276 4.05575L77.6268 3.48074L77.7291 4.72654L72.1343 5.18618L72.4563 9.1048L77.6886 8.67493L77.791 9.92073L72.5586 10.3506L72.8824 14.2919L78.5678 13.8248L78.6701 15.0706L71.5804 15.653Z" fill="#FACE8D"/>
<path d="M86.1873 15.2871L87.8294 3.76719L94.7818 4.7582L94.6054 5.99569L89.048 5.20353L88.4931 9.096L93.6906 9.83685L93.5142 11.0743L88.3167 10.3335L87.7587 14.2485L93.4062 15.0535L93.2298 16.2909L86.1873 15.2871Z" fill="#FACE8D"/>
<path d="M103.699 8.23201L104.154 7.06778L112.282 10.2448L111.827 11.409L108.419 10.077L104.638 19.7507L103.326 19.2378L107.107 9.56405L103.699 8.23201Z" fill="#FACE8D"/>
<path d="M124.903 21.1295C125.177 20.6188 125.207 20.0941 124.993 19.5553C124.778 19.0165 124.382 18.545 123.805 18.1408C123.383 17.8452 122.966 17.6549 122.554 17.5697C122.145 17.4867 121.769 17.5027 121.425 17.6177C121.084 17.7349 120.807 17.9455 120.594 18.2496C120.415 18.504 120.323 18.7651 120.315 19.0329C120.313 19.2997 120.366 19.561 120.474 19.8168C120.584 20.0694 120.717 20.3084 120.873 20.5337C121.032 20.756 121.184 20.9523 121.328 21.1227L122.113 22.0614C122.316 22.3004 122.529 22.5838 122.753 22.9115C122.979 23.2415 123.163 23.6035 123.303 23.9977C123.448 24.3909 123.505 24.8052 123.473 25.2405C123.441 25.6759 123.268 26.1169 122.955 26.5637C122.595 27.0787 122.134 27.4495 121.573 27.6762C121.015 27.905 120.392 27.9616 119.705 27.8459C119.022 27.7324 118.314 27.4192 117.582 26.9064C116.899 26.4283 116.385 25.9041 116.04 25.334C115.698 24.766 115.522 24.185 115.513 23.591C115.507 22.9993 115.667 22.4297 115.995 21.8825L117.187 22.717C116.966 23.0986 116.878 23.4812 116.924 23.8647C116.975 24.2474 117.123 24.6102 117.368 24.9532C117.619 25.2952 117.934 25.5988 118.312 25.8639C118.753 26.1725 119.198 26.3783 119.649 26.4811C120.101 26.5809 120.52 26.5737 120.905 26.4597C121.293 26.3425 121.608 26.1102 121.852 25.7627C122.073 25.4463 122.165 25.1268 122.127 24.8044C122.09 24.482 121.97 24.1577 121.768 23.8314C121.567 23.5052 121.331 23.1782 121.061 22.8505L120.123 21.6939C119.529 20.9583 119.153 20.2398 118.997 19.5384C118.841 18.837 118.988 18.1653 119.438 17.523C119.811 16.9894 120.282 16.6251 120.848 16.4301C121.42 16.2342 122.028 16.1978 122.673 16.3209C123.323 16.443 123.952 16.7171 124.56 17.1431C125.174 17.5734 125.643 18.066 125.966 18.6209C126.292 19.1728 126.462 19.7358 126.476 20.3098C126.493 20.8861 126.341 21.4201 126.02 21.9118L124.903 21.1295Z" fill="#FACE8D"/>
<path d="M141.664 35.5243L142.715 34.8474L147.441 42.1843L146.39 42.8612L144.409 39.7851L135.677 45.4094L134.914 44.2248L143.646 38.6005L141.664 35.5243Z" fill="#FACE8D"/>
<path d="M140.961 55.2462L151.955 51.4339L153.244 55.1488C153.541 56.0077 153.639 56.7636 153.537 57.4165C153.438 58.0682 153.18 58.6145 152.764 59.0556C152.348 59.4966 151.816 59.8294 151.168 60.0541C150.52 60.2787 149.9 60.3454 149.307 60.2543C148.714 60.1632 148.18 59.8935 147.703 59.4453C147.231 58.9957 146.847 58.3451 146.551 57.4933L145.509 54.4871L146.712 54.0701L147.739 57.0334C147.943 57.6203 148.192 58.063 148.488 58.3613C148.785 58.6632 149.119 58.84 149.49 58.8919C149.866 58.9461 150.273 58.8968 150.714 58.7442C151.154 58.5916 151.51 58.3758 151.782 58.0971C152.054 57.8183 152.217 57.4671 152.271 57.0436C152.328 56.6188 152.254 56.1094 152.048 55.5153L151.236 53.1748L141.423 56.5775L140.961 55.2462ZM147.695 58.7086L143.694 63.1268L143.158 61.5807L147.173 57.2055L147.695 58.7086Z" fill="#FACE8D"/>
<path d="M145.27 70.7151L145.129 69.2445L157.12 72.3904L157.258 73.8384L146.081 79.1991L145.94 77.7286L155.361 73.3348L155.352 73.2443L145.27 70.7151ZM149.847 70.8255L150.413 76.753L149.169 76.872L148.602 70.9444L149.847 70.8255Z" fill="#FACE8D"/>
<path d="M145.321 89.359L145.859 85.8087L157.364 87.5545L156.801 91.2621C156.632 92.3781 156.257 93.2981 155.676 94.0221C155.098 94.7468 154.349 95.2556 153.427 95.5486C152.509 95.8422 151.454 95.8987 150.263 95.718C149.065 95.5361 148.066 95.1661 147.265 94.6079C146.469 94.0503 145.9 93.328 145.56 92.4411C145.223 91.5548 145.143 90.5274 145.321 89.359ZM146.884 87.3894L146.57 89.4566C146.426 90.4079 146.49 91.224 146.762 91.9052C147.034 92.5863 147.485 93.1318 148.117 93.5417C148.748 93.9517 149.532 94.2277 150.468 94.3698C151.397 94.5107 152.219 94.4804 152.936 94.2788C153.656 94.0777 154.241 93.703 154.692 93.1546C155.147 92.6068 155.443 91.8835 155.579 90.9847L155.917 88.7601L146.884 87.3894Z" fill="#FACE8D"/>
<path d="M152.719 107.38L141.796 103.37L142.281 102.047L153.205 106.057L152.719 107.38Z" fill="#FACE8D"/>
<path d="M147.749 115.818L148.818 116.467L144.29 123.927L143.221 123.279L145.12 120.151L136.241 114.761L136.972 113.557L145.851 118.946L147.749 115.818Z" fill="#FACE8D"/>
<path d="M137.222 132.674L128.624 124.834L129.573 123.793L138.172 131.633L137.222 132.674Z" fill="#FACE8D"/>
<path d="M118.217 141.136C117.501 140.139 117.063 139.149 116.901 138.164C116.74 137.18 116.831 136.265 117.176 135.42C117.521 134.576 118.096 133.864 118.902 133.285C119.708 132.706 120.567 132.388 121.477 132.331C122.388 132.274 123.284 132.48 124.165 132.947C125.046 133.415 125.845 134.147 126.561 135.144C127.277 136.141 127.716 137.131 127.877 138.116C128.039 139.101 127.947 140.015 127.602 140.86C127.257 141.704 126.682 142.416 125.876 142.995C125.07 143.574 124.212 143.892 123.301 143.949C122.391 144.006 121.495 143.8 120.613 143.333C119.732 142.865 118.933 142.133 118.217 141.136ZM119.325 140.341C119.913 141.159 120.546 141.752 121.224 142.118C121.899 142.487 122.573 142.649 123.245 142.604C123.914 142.562 124.535 142.335 125.107 141.924C125.679 141.513 126.094 140.996 126.351 140.373C126.604 139.753 126.666 139.063 126.536 138.303C126.402 137.546 126.041 136.758 125.453 135.939C124.866 135.121 124.234 134.527 123.559 134.159C122.881 133.792 122.207 133.63 121.538 133.673C120.866 133.717 120.244 133.945 119.671 134.356C119.099 134.767 118.686 135.283 118.432 135.903C118.175 136.526 118.114 137.216 118.247 137.974C118.378 138.733 118.737 139.522 119.325 140.341Z" fill="#FACE8D"/>
<path d="M103.38 154.214L99.34 143.301L100.619 142.828L109.737 149.194L109.844 149.155L106.672 140.587L107.993 140.097L112.033 151.01L110.754 151.483L101.607 145.103L101.5 145.143L104.68 153.732L103.38 154.214Z" fill="#FACE8D"/>
</svg>
