<svg width="137" height="30" viewBox="0 0 137 30" fill="none" xmlns="http://www.w3.org/2000/svg">
<path d="M40.439 24.81H40.534V25H37.855V24.81H37.95C38.0387 24.81 38.121 24.772 38.197 24.696C38.273 24.62 38.3363 24.5313 38.387 24.43C38.4503 24.3287 38.4947 24.221 38.52 24.107C38.5453 23.9803 38.558 23.8663 38.558 23.765V13.638C38.558 13.5493 38.5453 13.448 38.52 13.334C38.4947 13.22 38.4503 13.1123 38.387 13.011C38.3363 12.9097 38.273 12.8273 38.197 12.764C38.121 12.688 38.0387 12.65 37.95 12.65H37.855V12.46H41.161C42.4277 12.46 43.403 12.707 44.087 13.201C44.7837 13.695 45.132 14.4233 45.132 15.386C45.132 15.8673 45.0497 16.2917 44.885 16.659C44.733 17.0137 44.524 17.324 44.258 17.59C43.992 17.8433 43.6753 18.0523 43.308 18.217C42.9533 18.369 42.5733 18.483 42.168 18.559L43.536 20.649C43.8653 21.1557 44.201 21.656 44.543 22.15C44.885 22.6313 45.2207 23.1317 45.55 23.651C45.6387 23.7777 45.7337 23.9107 45.835 24.05C45.949 24.1893 46.063 24.316 46.177 24.43C46.3037 24.544 46.4303 24.639 46.557 24.715C46.6963 24.7783 46.8357 24.81 46.975 24.81V25H46.158C45.6513 25 45.2333 24.8797 44.904 24.639C44.5873 24.3857 44.3213 24.0943 44.106 23.765C43.536 22.929 42.966 22.0803 42.396 21.219C41.8387 20.3577 41.2813 19.509 40.724 18.673C40.5847 18.6603 40.4327 18.6477 40.268 18.635C40.116 18.6097 39.9703 18.5843 39.831 18.559V23.765C39.831 23.8663 39.8437 23.9803 39.869 24.107C39.8943 24.221 39.9323 24.3287 39.983 24.43C40.0463 24.5313 40.1097 24.62 40.173 24.696C40.249 24.772 40.3377 24.81 40.439 24.81ZM39.831 13.106V17.932H39.926C40.0273 17.9447 40.1857 17.9573 40.401 17.97C40.629 17.97 40.9077 17.97 41.237 17.97C41.503 17.97 41.7817 17.932 42.073 17.856C42.377 17.7673 42.6557 17.628 42.909 17.438C43.175 17.2353 43.3903 16.9757 43.555 16.659C43.7323 16.3423 43.821 15.9433 43.821 15.462C43.821 14.9807 43.726 14.588 43.536 14.284C43.3587 13.98 43.1053 13.7393 42.776 13.562C42.4593 13.3847 42.073 13.2643 41.617 13.201C41.161 13.1377 40.6607 13.106 40.116 13.106H39.831ZM48.7147 21.162C48.7654 21.6053 48.873 22.0297 49.0377 22.435C49.2024 22.8277 49.4177 23.176 49.6837 23.48C49.9624 23.784 50.298 24.031 50.6907 24.221C51.0834 24.3983 51.5394 24.487 52.0587 24.487C52.3374 24.487 52.6287 24.449 52.9327 24.373C53.2494 24.2843 53.5407 24.164 53.8067 24.012C54.0727 23.86 54.307 23.6763 54.5097 23.461C54.725 23.233 54.8707 22.9797 54.9467 22.701H55.1177V24.126C55.0417 24.126 54.953 24.1513 54.8517 24.202C54.763 24.2527 54.6554 24.316 54.5287 24.392C54.2754 24.544 53.9334 24.7087 53.5027 24.886C53.072 25.0507 52.502 25.133 51.7927 25.133C51.2227 25.133 50.678 25.0507 50.1587 24.886C49.652 24.7213 49.2024 24.468 48.8097 24.126C48.417 23.784 48.1004 23.347 47.8597 22.815C47.6317 22.283 47.5177 21.6497 47.5177 20.915C47.5177 20.4463 47.5937 19.9713 47.7457 19.49C47.9104 19.0087 48.151 18.578 48.4677 18.198C48.797 17.8053 49.215 17.4887 49.7217 17.248C50.2284 17.0073 50.8364 16.887 51.5457 16.887C52.179 16.887 52.73 16.9947 53.1987 17.21C53.68 17.4253 54.0727 17.723 54.3767 18.103C54.6934 18.483 54.9277 18.9327 55.0797 19.452C55.2317 19.9713 55.3077 20.5413 55.3077 21.162H48.7147ZM51.4697 17.514C51.0264 17.514 50.64 17.6027 50.3107 17.78C49.994 17.9573 49.7217 18.1853 49.4937 18.464C49.2657 18.7427 49.0884 19.0593 48.9617 19.414C48.835 19.7687 48.7527 20.1233 48.7147 20.478H54.1297C54.117 20.1107 54.0474 19.7497 53.9207 19.395C53.8067 19.0403 53.642 18.7237 53.4267 18.445C53.2114 18.1663 52.939 17.9447 52.6097 17.78C52.2804 17.6027 51.9004 17.514 51.4697 17.514ZM63.2697 22.834C63.2697 23.1633 63.1874 23.4673 63.0227 23.746C62.8581 24.0247 62.6301 24.2717 62.3387 24.487C62.0601 24.6897 61.7307 24.8543 61.3507 24.981C60.9707 25.095 60.5591 25.152 60.1157 25.152C59.5711 25.152 59.1277 25.0823 58.7857 24.943C58.4437 24.791 58.1524 24.639 57.9117 24.487C57.7471 24.3857 57.5951 24.3033 57.4557 24.24C57.3164 24.164 57.1644 24.126 56.9997 24.126V22.682H57.1897C57.2277 22.8593 57.3354 23.0557 57.5127 23.271C57.7027 23.4737 57.9244 23.6637 58.1777 23.841C58.4437 24.0183 58.7287 24.1703 59.0327 24.297C59.3494 24.411 59.6661 24.468 59.9827 24.468C60.2107 24.468 60.4451 24.4427 60.6857 24.392C60.9264 24.3413 61.1417 24.259 61.3317 24.145C61.5344 24.031 61.6991 23.8917 61.8257 23.727C61.9651 23.5497 62.0347 23.3407 62.0347 23.1C62.0347 22.8593 61.9651 22.6503 61.8257 22.473C61.6864 22.2957 61.5091 22.1437 61.2937 22.017C61.0784 21.8777 60.8314 21.7573 60.5527 21.656C60.2741 21.5547 59.9954 21.4597 59.7167 21.371C59.3874 21.2697 59.0517 21.1557 58.7097 21.029C58.3804 20.9023 58.0827 20.7567 57.8167 20.592C57.5507 20.4147 57.3354 20.2057 57.1707 19.965C57.0061 19.7117 56.9237 19.414 56.9237 19.072C56.9237 18.7807 56.9744 18.502 57.0757 18.236C57.1897 17.97 57.3671 17.742 57.6077 17.552C57.8611 17.3493 58.1841 17.191 58.5767 17.077C58.9694 16.9503 59.4444 16.887 60.0017 16.887C60.4957 16.887 60.8757 16.9313 61.1417 17.02C61.4204 17.096 61.6484 17.1783 61.8257 17.267C61.9397 17.3303 62.0537 17.381 62.1677 17.419C62.2817 17.4443 62.4084 17.457 62.5477 17.457V18.787H62.3957C62.1677 18.369 61.8194 18.0523 61.3507 17.837C60.8821 17.6217 60.4007 17.514 59.9067 17.514C59.5901 17.514 59.3177 17.5583 59.0897 17.647C58.8617 17.723 58.6717 17.8243 58.5197 17.951C58.3804 18.065 58.2727 18.198 58.1967 18.35C58.1334 18.502 58.1017 18.654 58.1017 18.806C58.1017 19.0213 58.1587 19.205 58.2727 19.357C58.3994 19.509 58.5641 19.642 58.7667 19.756C58.9821 19.87 59.2164 19.9777 59.4697 20.079C59.7357 20.1803 60.0144 20.2753 60.3057 20.364C60.6604 20.478 61.0151 20.6047 61.3697 20.744C61.7244 20.8707 62.0411 21.029 62.3197 21.219C62.5984 21.409 62.8264 21.637 63.0037 21.903C63.1811 22.1563 63.2697 22.4667 63.2697 22.834ZM66.7113 21.162C66.7619 21.6053 66.8696 22.0297 67.0343 22.435C67.1989 22.8277 67.4143 23.176 67.6803 23.48C67.9589 23.784 68.2946 24.031 68.6873 24.221C69.0799 24.3983 69.5359 24.487 70.0553 24.487C70.3339 24.487 70.6253 24.449 70.9293 24.373C71.2459 24.2843 71.5373 24.164 71.8033 24.012C72.0693 23.86 72.3036 23.6763 72.5063 23.461C72.7216 23.233 72.8673 22.9797 72.9433 22.701H73.1143V24.126C73.0383 24.126 72.9496 24.1513 72.8483 24.202C72.7596 24.2527 72.6519 24.316 72.5253 24.392C72.2719 24.544 71.9299 24.7087 71.4993 24.886C71.0686 25.0507 70.4986 25.133 69.7893 25.133C69.2193 25.133 68.6746 25.0507 68.1553 24.886C67.6486 24.7213 67.1989 24.468 66.8063 24.126C66.4136 23.784 66.0969 23.347 65.8563 22.815C65.6283 22.283 65.5143 21.6497 65.5143 20.915C65.5143 20.4463 65.5903 19.9713 65.7423 19.49C65.9069 19.0087 66.1476 18.578 66.4643 18.198C66.7936 17.8053 67.2116 17.4887 67.7183 17.248C68.2249 17.0073 68.8329 16.887 69.5423 16.887C70.1756 16.887 70.7266 16.9947 71.1953 17.21C71.6766 17.4253 72.0693 17.723 72.3733 18.103C72.6899 18.483 72.9243 18.9327 73.0763 19.452C73.2283 19.9713 73.3043 20.5413 73.3043 21.162H66.7113ZM69.4663 17.514C69.0229 17.514 68.6366 17.6027 68.3073 17.78C67.9906 17.9573 67.7183 18.1853 67.4903 18.464C67.2623 18.7427 67.0849 19.0593 66.9583 19.414C66.8316 19.7687 66.7493 20.1233 66.7113 20.478H72.1263C72.1136 20.1107 72.0439 19.7497 71.9173 19.395C71.8033 19.0403 71.6386 18.7237 71.4233 18.445C71.2079 18.1663 70.9356 17.9447 70.6063 17.78C70.2769 17.6027 69.8969 17.514 69.4663 17.514ZM80.2839 18.407C80.1319 18.1537 79.9736 17.9953 79.8089 17.932C79.6443 17.8687 79.4543 17.837 79.2389 17.837C79.0996 17.837 78.9476 17.8687 78.7829 17.932C78.6309 17.9953 78.4789 18.0777 78.3269 18.179C78.1749 18.2803 78.0229 18.3943 77.8709 18.521C77.7316 18.635 77.6113 18.7427 77.5099 18.844V23.784C77.5099 23.8853 77.5226 23.993 77.5479 24.107C77.5733 24.221 77.6113 24.335 77.6619 24.449C77.7253 24.5503 77.7886 24.639 77.8519 24.715C77.9279 24.7783 78.0166 24.81 78.1179 24.81V25H75.6479V24.81C75.7366 24.81 75.8189 24.7783 75.8949 24.715C75.9709 24.639 76.0343 24.5503 76.0849 24.449C76.1483 24.335 76.1926 24.221 76.2179 24.107C76.2433 23.993 76.2559 23.8853 76.2559 23.784V18.483C76.2559 18.3057 76.1989 18.1283 76.0849 17.951C75.9709 17.7737 75.8063 17.6597 75.5909 17.609V17.457L77.5099 16.887V18.027C77.6239 17.8877 77.7443 17.7547 77.8709 17.628C77.9976 17.4887 78.1369 17.3683 78.2889 17.267C78.4536 17.153 78.6309 17.0643 78.8209 17.001C79.0109 16.925 79.2326 16.887 79.4859 16.887C79.6633 16.887 79.8913 16.925 80.1699 17.001C80.4486 17.077 80.6766 17.1593 80.8539 17.248L80.2839 18.407ZM90.4853 17.02V17.21C90.3966 17.21 90.308 17.2417 90.2193 17.305C90.1306 17.3683 90.042 17.4507 89.9533 17.552C89.8773 17.6533 89.8013 17.7673 89.7253 17.894C89.662 18.008 89.605 18.1157 89.5543 18.217L86.2863 25.323L83.0373 18.141C82.9486 17.9383 82.8346 17.7357 82.6953 17.533C82.556 17.3177 82.3786 17.21 82.1633 17.21V17.02H84.7663V17.21C84.6903 17.21 84.589 17.248 84.4623 17.324C84.3483 17.4 84.2913 17.5077 84.2913 17.647C84.2913 17.7103 84.342 17.856 84.4433 18.084L86.6283 23.005L88.9843 17.875C89.035 17.7483 89.0603 17.6533 89.0603 17.59C89.0603 17.476 89.0033 17.3873 88.8893 17.324C88.788 17.248 88.6993 17.21 88.6233 17.21V17.02H90.4853ZM97.4359 25V24.031L97.3409 24.126C97.0242 24.4427 96.6569 24.6897 96.2389 24.867C95.8336 25.0443 95.3396 25.133 94.7569 25.133C94.3136 25.133 93.9336 25.0823 93.6169 24.981C93.3002 24.8797 93.0406 24.7403 92.8379 24.563C92.6352 24.373 92.4832 24.1577 92.3819 23.917C92.2932 23.6763 92.2489 23.423 92.2489 23.157C92.2489 22.7263 92.3629 22.3463 92.5909 22.017C92.8316 21.6877 93.1736 21.3963 93.6169 21.143C94.0602 20.8897 94.5986 20.6617 95.2319 20.459C95.8779 20.2437 96.6126 20.0347 97.4359 19.832C97.4106 19.338 97.3092 18.939 97.1319 18.635C96.9546 18.331 96.7456 18.0967 96.5049 17.932C96.2642 17.7547 96.0109 17.6407 95.7449 17.59C95.4789 17.5267 95.2509 17.495 95.0609 17.495C94.7316 17.495 94.4402 17.5457 94.1869 17.647C93.9462 17.7483 93.7309 17.8813 93.5409 18.046C93.3636 18.198 93.2116 18.369 93.0849 18.559C92.9582 18.7363 92.8569 18.9073 92.7809 19.072H92.6099V17.685C92.7112 17.6723 92.8062 17.6407 92.8949 17.59C92.9836 17.5393 93.0912 17.4887 93.2179 17.438C93.4079 17.362 93.6676 17.2543 93.9969 17.115C94.3262 16.963 94.7886 16.887 95.3839 16.887C96.0806 16.887 96.6442 16.9757 97.0749 17.153C97.5056 17.3303 97.8349 17.5647 98.0629 17.856C98.3036 18.1473 98.4619 18.483 98.5379 18.863C98.6139 19.2303 98.6519 19.6103 98.6519 20.003V23.765C98.6519 24.0183 98.7089 24.259 98.8229 24.487C98.9369 24.7023 99.0889 24.81 99.2789 24.81V25H97.4359ZM97.4359 23.195V20.478L97.2459 20.516C96.9419 20.592 96.5682 20.6933 96.1249 20.82C95.6942 20.9467 95.2826 21.1113 94.8899 21.314C94.4972 21.5167 94.1616 21.7573 93.8829 22.036C93.6042 22.3147 93.4649 22.6377 93.4649 23.005C93.4649 23.4103 93.6296 23.746 93.9589 24.012C94.2882 24.278 94.7189 24.411 95.2509 24.411C95.6689 24.411 96.0362 24.3223 96.3529 24.145C96.6696 23.955 96.9609 23.7143 97.2269 23.423L97.4359 23.195ZM94.3009 16.488L96.9989 14.455L97.4929 15.31L94.3579 16.602L94.3009 16.488Z" fill="url(#paint0_linear_126_348)"/>
<path d="M40.439 24.81H40.534V25H37.855V24.81H37.95C38.0387 24.81 38.121 24.772 38.197 24.696C38.273 24.62 38.3363 24.5313 38.387 24.43C38.4503 24.3287 38.4947 24.221 38.52 24.107C38.5453 23.9803 38.558 23.8663 38.558 23.765V13.638C38.558 13.5493 38.5453 13.448 38.52 13.334C38.4947 13.22 38.4503 13.1123 38.387 13.011C38.3363 12.9097 38.273 12.8273 38.197 12.764C38.121 12.688 38.0387 12.65 37.95 12.65H37.855V12.46H41.161C42.4277 12.46 43.403 12.707 44.087 13.201C44.7837 13.695 45.132 14.4233 45.132 15.386C45.132 15.8673 45.0497 16.2917 44.885 16.659C44.733 17.0137 44.524 17.324 44.258 17.59C43.992 17.8433 43.6753 18.0523 43.308 18.217C42.9533 18.369 42.5733 18.483 42.168 18.559L43.536 20.649C43.8653 21.1557 44.201 21.656 44.543 22.15C44.885 22.6313 45.2207 23.1317 45.55 23.651C45.6387 23.7777 45.7337 23.9107 45.835 24.05C45.949 24.1893 46.063 24.316 46.177 24.43C46.3037 24.544 46.4303 24.639 46.557 24.715C46.6963 24.7783 46.8357 24.81 46.975 24.81V25H46.158C45.6513 25 45.2333 24.8797 44.904 24.639C44.5873 24.3857 44.3213 24.0943 44.106 23.765C43.536 22.929 42.966 22.0803 42.396 21.219C41.8387 20.3577 41.2813 19.509 40.724 18.673C40.5847 18.6603 40.4327 18.6477 40.268 18.635C40.116 18.6097 39.9703 18.5843 39.831 18.559V23.765C39.831 23.8663 39.8437 23.9803 39.869 24.107C39.8943 24.221 39.9323 24.3287 39.983 24.43C40.0463 24.5313 40.1097 24.62 40.173 24.696C40.249 24.772 40.3377 24.81 40.439 24.81ZM39.831 13.106V17.932H39.926C40.0273 17.9447 40.1857 17.9573 40.401 17.97C40.629 17.97 40.9077 17.97 41.237 17.97C41.503 17.97 41.7817 17.932 42.073 17.856C42.377 17.7673 42.6557 17.628 42.909 17.438C43.175 17.2353 43.3903 16.9757 43.555 16.659C43.7323 16.3423 43.821 15.9433 43.821 15.462C43.821 14.9807 43.726 14.588 43.536 14.284C43.3587 13.98 43.1053 13.7393 42.776 13.562C42.4593 13.3847 42.073 13.2643 41.617 13.201C41.161 13.1377 40.6607 13.106 40.116 13.106H39.831ZM48.7147 21.162C48.7654 21.6053 48.873 22.0297 49.0377 22.435C49.2024 22.8277 49.4177 23.176 49.6837 23.48C49.9624 23.784 50.298 24.031 50.6907 24.221C51.0834 24.3983 51.5394 24.487 52.0587 24.487C52.3374 24.487 52.6287 24.449 52.9327 24.373C53.2494 24.2843 53.5407 24.164 53.8067 24.012C54.0727 23.86 54.307 23.6763 54.5097 23.461C54.725 23.233 54.8707 22.9797 54.9467 22.701H55.1177V24.126C55.0417 24.126 54.953 24.1513 54.8517 24.202C54.763 24.2527 54.6554 24.316 54.5287 24.392C54.2754 24.544 53.9334 24.7087 53.5027 24.886C53.072 25.0507 52.502 25.133 51.7927 25.133C51.2227 25.133 50.678 25.0507 50.1587 24.886C49.652 24.7213 49.2024 24.468 48.8097 24.126C48.417 23.784 48.1004 23.347 47.8597 22.815C47.6317 22.283 47.5177 21.6497 47.5177 20.915C47.5177 20.4463 47.5937 19.9713 47.7457 19.49C47.9104 19.0087 48.151 18.578 48.4677 18.198C48.797 17.8053 49.215 17.4887 49.7217 17.248C50.2284 17.0073 50.8364 16.887 51.5457 16.887C52.179 16.887 52.73 16.9947 53.1987 17.21C53.68 17.4253 54.0727 17.723 54.3767 18.103C54.6934 18.483 54.9277 18.9327 55.0797 19.452C55.2317 19.9713 55.3077 20.5413 55.3077 21.162H48.7147ZM51.4697 17.514C51.0264 17.514 50.64 17.6027 50.3107 17.78C49.994 17.9573 49.7217 18.1853 49.4937 18.464C49.2657 18.7427 49.0884 19.0593 48.9617 19.414C48.835 19.7687 48.7527 20.1233 48.7147 20.478H54.1297C54.117 20.1107 54.0474 19.7497 53.9207 19.395C53.8067 19.0403 53.642 18.7237 53.4267 18.445C53.2114 18.1663 52.939 17.9447 52.6097 17.78C52.2804 17.6027 51.9004 17.514 51.4697 17.514ZM63.2697 22.834C63.2697 23.1633 63.1874 23.4673 63.0227 23.746C62.8581 24.0247 62.6301 24.2717 62.3387 24.487C62.0601 24.6897 61.7307 24.8543 61.3507 24.981C60.9707 25.095 60.5591 25.152 60.1157 25.152C59.5711 25.152 59.1277 25.0823 58.7857 24.943C58.4437 24.791 58.1524 24.639 57.9117 24.487C57.7471 24.3857 57.5951 24.3033 57.4557 24.24C57.3164 24.164 57.1644 24.126 56.9997 24.126V22.682H57.1897C57.2277 22.8593 57.3354 23.0557 57.5127 23.271C57.7027 23.4737 57.9244 23.6637 58.1777 23.841C58.4437 24.0183 58.7287 24.1703 59.0327 24.297C59.3494 24.411 59.6661 24.468 59.9827 24.468C60.2107 24.468 60.4451 24.4427 60.6857 24.392C60.9264 24.3413 61.1417 24.259 61.3317 24.145C61.5344 24.031 61.6991 23.8917 61.8257 23.727C61.9651 23.5497 62.0347 23.3407 62.0347 23.1C62.0347 22.8593 61.9651 22.6503 61.8257 22.473C61.6864 22.2957 61.5091 22.1437 61.2937 22.017C61.0784 21.8777 60.8314 21.7573 60.5527 21.656C60.2741 21.5547 59.9954 21.4597 59.7167 21.371C59.3874 21.2697 59.0517 21.1557 58.7097 21.029C58.3804 20.9023 58.0827 20.7567 57.8167 20.592C57.5507 20.4147 57.3354 20.2057 57.1707 19.965C57.0061 19.7117 56.9237 19.414 56.9237 19.072C56.9237 18.7807 56.9744 18.502 57.0757 18.236C57.1897 17.97 57.3671 17.742 57.6077 17.552C57.8611 17.3493 58.1841 17.191 58.5767 17.077C58.9694 16.9503 59.4444 16.887 60.0017 16.887C60.4957 16.887 60.8757 16.9313 61.1417 17.02C61.4204 17.096 61.6484 17.1783 61.8257 17.267C61.9397 17.3303 62.0537 17.381 62.1677 17.419C62.2817 17.4443 62.4084 17.457 62.5477 17.457V18.787H62.3957C62.1677 18.369 61.8194 18.0523 61.3507 17.837C60.8821 17.6217 60.4007 17.514 59.9067 17.514C59.5901 17.514 59.3177 17.5583 59.0897 17.647C58.8617 17.723 58.6717 17.8243 58.5197 17.951C58.3804 18.065 58.2727 18.198 58.1967 18.35C58.1334 18.502 58.1017 18.654 58.1017 18.806C58.1017 19.0213 58.1587 19.205 58.2727 19.357C58.3994 19.509 58.5641 19.642 58.7667 19.756C58.9821 19.87 59.2164 19.9777 59.4697 20.079C59.7357 20.1803 60.0144 20.2753 60.3057 20.364C60.6604 20.478 61.0151 20.6047 61.3697 20.744C61.7244 20.8707 62.0411 21.029 62.3197 21.219C62.5984 21.409 62.8264 21.637 63.0037 21.903C63.1811 22.1563 63.2697 22.4667 63.2697 22.834ZM66.7113 21.162C66.7619 21.6053 66.8696 22.0297 67.0343 22.435C67.1989 22.8277 67.4143 23.176 67.6803 23.48C67.9589 23.784 68.2946 24.031 68.6873 24.221C69.0799 24.3983 69.5359 24.487 70.0553 24.487C70.3339 24.487 70.6253 24.449 70.9293 24.373C71.2459 24.2843 71.5373 24.164 71.8033 24.012C72.0693 23.86 72.3036 23.6763 72.5063 23.461C72.7216 23.233 72.8673 22.9797 72.9433 22.701H73.1143V24.126C73.0383 24.126 72.9496 24.1513 72.8483 24.202C72.7596 24.2527 72.6519 24.316 72.5253 24.392C72.2719 24.544 71.9299 24.7087 71.4993 24.886C71.0686 25.0507 70.4986 25.133 69.7893 25.133C69.2193 25.133 68.6746 25.0507 68.1553 24.886C67.6486 24.7213 67.1989 24.468 66.8063 24.126C66.4136 23.784 66.0969 23.347 65.8563 22.815C65.6283 22.283 65.5143 21.6497 65.5143 20.915C65.5143 20.4463 65.5903 19.9713 65.7423 19.49C65.9069 19.0087 66.1476 18.578 66.4643 18.198C66.7936 17.8053 67.2116 17.4887 67.7183 17.248C68.2249 17.0073 68.8329 16.887 69.5423 16.887C70.1756 16.887 70.7266 16.9947 71.1953 17.21C71.6766 17.4253 72.0693 17.723 72.3733 18.103C72.6899 18.483 72.9243 18.9327 73.0763 19.452C73.2283 19.9713 73.3043 20.5413 73.3043 21.162H66.7113ZM69.4663 17.514C69.0229 17.514 68.6366 17.6027 68.3073 17.78C67.9906 17.9573 67.7183 18.1853 67.4903 18.464C67.2623 18.7427 67.0849 19.0593 66.9583 19.414C66.8316 19.7687 66.7493 20.1233 66.7113 20.478H72.1263C72.1136 20.1107 72.0439 19.7497 71.9173 19.395C71.8033 19.0403 71.6386 18.7237 71.4233 18.445C71.2079 18.1663 70.9356 17.9447 70.6063 17.78C70.2769 17.6027 69.8969 17.514 69.4663 17.514ZM80.2839 18.407C80.1319 18.1537 79.9736 17.9953 79.8089 17.932C79.6443 17.8687 79.4543 17.837 79.2389 17.837C79.0996 17.837 78.9476 17.8687 78.7829 17.932C78.6309 17.9953 78.4789 18.0777 78.3269 18.179C78.1749 18.2803 78.0229 18.3943 77.8709 18.521C77.7316 18.635 77.6113 18.7427 77.5099 18.844V23.784C77.5099 23.8853 77.5226 23.993 77.5479 24.107C77.5733 24.221 77.6113 24.335 77.6619 24.449C77.7253 24.5503 77.7886 24.639 77.8519 24.715C77.9279 24.7783 78.0166 24.81 78.1179 24.81V25H75.6479V24.81C75.7366 24.81 75.8189 24.7783 75.8949 24.715C75.9709 24.639 76.0343 24.5503 76.0849 24.449C76.1483 24.335 76.1926 24.221 76.2179 24.107C76.2433 23.993 76.2559 23.8853 76.2559 23.784V18.483C76.2559 18.3057 76.1989 18.1283 76.0849 17.951C75.9709 17.7737 75.8063 17.6597 75.5909 17.609V17.457L77.5099 16.887V18.027C77.6239 17.8877 77.7443 17.7547 77.8709 17.628C77.9976 17.4887 78.1369 17.3683 78.2889 17.267C78.4536 17.153 78.6309 17.0643 78.8209 17.001C79.0109 16.925 79.2326 16.887 79.4859 16.887C79.6633 16.887 79.8913 16.925 80.1699 17.001C80.4486 17.077 80.6766 17.1593 80.8539 17.248L80.2839 18.407ZM90.4853 17.02V17.21C90.3966 17.21 90.308 17.2417 90.2193 17.305C90.1306 17.3683 90.042 17.4507 89.9533 17.552C89.8773 17.6533 89.8013 17.7673 89.7253 17.894C89.662 18.008 89.605 18.1157 89.5543 18.217L86.2863 25.323L83.0373 18.141C82.9486 17.9383 82.8346 17.7357 82.6953 17.533C82.556 17.3177 82.3786 17.21 82.1633 17.21V17.02H84.7663V17.21C84.6903 17.21 84.589 17.248 84.4623 17.324C84.3483 17.4 84.2913 17.5077 84.2913 17.647C84.2913 17.7103 84.342 17.856 84.4433 18.084L86.6283 23.005L88.9843 17.875C89.035 17.7483 89.0603 17.6533 89.0603 17.59C89.0603 17.476 89.0033 17.3873 88.8893 17.324C88.788 17.248 88.6993 17.21 88.6233 17.21V17.02H90.4853ZM97.4359 25V24.031L97.3409 24.126C97.0242 24.4427 96.6569 24.6897 96.2389 24.867C95.8336 25.0443 95.3396 25.133 94.7569 25.133C94.3136 25.133 93.9336 25.0823 93.6169 24.981C93.3002 24.8797 93.0406 24.7403 92.8379 24.563C92.6352 24.373 92.4832 24.1577 92.3819 23.917C92.2932 23.6763 92.2489 23.423 92.2489 23.157C92.2489 22.7263 92.3629 22.3463 92.5909 22.017C92.8316 21.6877 93.1736 21.3963 93.6169 21.143C94.0602 20.8897 94.5986 20.6617 95.2319 20.459C95.8779 20.2437 96.6126 20.0347 97.4359 19.832C97.4106 19.338 97.3092 18.939 97.1319 18.635C96.9546 18.331 96.7456 18.0967 96.5049 17.932C96.2642 17.7547 96.0109 17.6407 95.7449 17.59C95.4789 17.5267 95.2509 17.495 95.0609 17.495C94.7316 17.495 94.4402 17.5457 94.1869 17.647C93.9462 17.7483 93.7309 17.8813 93.5409 18.046C93.3636 18.198 93.2116 18.369 93.0849 18.559C92.9582 18.7363 92.8569 18.9073 92.7809 19.072H92.6099V17.685C92.7112 17.6723 92.8062 17.6407 92.8949 17.59C92.9836 17.5393 93.0912 17.4887 93.2179 17.438C93.4079 17.362 93.6676 17.2543 93.9969 17.115C94.3262 16.963 94.7886 16.887 95.3839 16.887C96.0806 16.887 96.6442 16.9757 97.0749 17.153C97.5056 17.3303 97.8349 17.5647 98.0629 17.856C98.3036 18.1473 98.4619 18.483 98.5379 18.863C98.6139 19.2303 98.6519 19.6103 98.6519 20.003V23.765C98.6519 24.0183 98.7089 24.259 98.8229 24.487C98.9369 24.7023 99.0889 24.81 99.2789 24.81V25H97.4359ZM97.4359 23.195V20.478L97.2459 20.516C96.9419 20.592 96.5682 20.6933 96.1249 20.82C95.6942 20.9467 95.2826 21.1113 94.8899 21.314C94.4972 21.5167 94.1616 21.7573 93.8829 22.036C93.6042 22.3147 93.4649 22.6377 93.4649 23.005C93.4649 23.4103 93.6296 23.746 93.9589 24.012C94.2882 24.278 94.7189 24.411 95.2509 24.411C95.6689 24.411 96.0362 24.3223 96.3529 24.145C96.6696 23.955 96.9609 23.7143 97.2269 23.423L97.4359 23.195ZM94.3009 16.488L96.9989 14.455L97.4929 15.31L94.3579 16.602L94.3009 16.488Z" fill="url(#paint1_linear_126_348)"/>
<path d="M76.2243 6.44308C75.8953 6.39838 75.5449 6.37512 75.217 6.41074C74.4383 6.49505 73.6628 6.59717 72.8906 6.7171C73.3967 6.53975 73.7935 6.23739 74.1058 5.82491C74.4893 5.31794 74.369 4.4599 73.7553 4.00417C73.5435 3.84986 73.2943 3.74664 73.0296 3.70363C72.9835 3.45656 72.8729 3.2239 72.7076 3.02621C72.2193 2.45419 71.3 2.34189 70.7568 2.69913C70.4259 2.91171 70.1515 3.19216 69.9547 3.51901C70.0151 3.11925 70.0715 2.7213 70.1144 2.31972C70.1693 1.81312 70.1447 1.29197 70.1245 0.778825C70.1085 0.356894 69.8811 0.0836027 69.5221 0.00910168C69.2184 -0.0541333 68.9833 0.215161 68.9038 0.722495C68.8559 1.02958 68.8314 1.35666 68.8696 1.66302C68.9599 2.38986 69.0693 3.11355 69.1978 3.83409C69.0078 3.36165 68.6834 2.99132 68.2415 2.69986C67.6987 2.34189 66.7794 2.45419 66.2912 3.02694C66.1258 3.22462 66.0153 3.45729 65.9692 3.70435C65.7045 3.74736 65.4552 3.85059 65.2434 4.0049C64.6305 4.46063 64.5102 5.31866 64.893 5.82563C65.2045 6.23812 65.6016 6.54048 66.1078 6.71783C65.3368 6.59814 64.5615 6.49602 63.7817 6.41147C63.4535 6.37512 63.103 6.39911 62.774 6.44381C62.2289 6.51649 61.9423 6.73745 62.0097 7.02092C62.0899 7.35563 62.3827 7.56787 62.8359 7.58349C63.3857 7.60239 63.9441 7.62565 64.4872 7.57441C64.9155 7.53371 65.3438 7.48137 65.7722 7.42541C65.4218 7.6089 65.1213 7.86503 64.8937 8.17405C64.5102 8.68102 64.6305 9.53906 65.2442 9.99478C65.4561 10.1489 65.7053 10.2521 65.9699 10.2953C66.0161 10.5424 66.1267 10.775 66.292 10.9727C66.7802 11.5444 67.6995 11.6567 68.2423 11.2998C68.6842 11.0091 69.0086 10.6384 69.1986 10.166C69.0701 10.8855 68.9607 11.6092 68.8703 12.337C68.8314 12.6434 68.8567 12.9705 68.9046 13.2776C68.9825 13.7863 69.2192 14.0538 69.5229 13.9909C69.8819 13.9164 70.1093 13.6432 70.1261 13.2198C70.1463 12.7066 70.1708 12.1855 70.1159 11.6785C70.0727 11.2787 70.0166 10.879 69.9563 10.4792C70.153 10.806 70.4274 11.0864 70.7584 11.2987C71.3035 11.6567 72.2208 11.5444 72.7091 10.9717C72.8744 10.7739 72.9849 10.5413 73.0311 10.2942C73.2954 10.251 73.5444 10.1479 73.7561 9.99406C74.369 9.53833 74.4893 8.6803 74.1065 8.17332C73.8789 7.86438 73.5784 7.60827 73.2281 7.42468C73.6564 7.48065 74.0828 7.53371 74.513 7.57368C75.0558 7.62492 75.6142 7.60167 76.164 7.58277C76.6176 7.56714 76.9104 7.3549 76.9902 7.02019C77.0583 6.73673 76.7679 6.51686 76.2243 6.44308ZM71.7022 4.02707H71.7045C71.7038 4.02712 71.703 4.02712 71.7022 4.02707ZM72.6865 4.94252C72.6865 4.94252 72.6865 4.94252 72.6865 4.94507H72.6842C72.6849 4.94415 72.6857 4.9433 72.6865 4.94252ZM70.0108 5.98772C70.0213 5.94011 70.0318 5.8925 70.0408 5.84453L70.0365 5.84235C70.1708 5.13795 70.4183 4.4565 70.7705 3.82101C71.0068 3.39181 71.402 3.16686 71.8996 3.08291C72.382 2.99968 72.683 3.23372 72.6889 3.67601C72.4483 3.67737 72.2113 3.73074 71.9966 3.83191C71.7419 3.73306 71.5468 3.79557 71.3872 3.98964C71.2108 4.20551 71.2942 4.42574 71.3452 4.64888C71.3593 4.72574 71.3898 4.79919 71.4348 4.8649C71.4798 4.93062 71.5384 4.98728 71.6072 5.03156C71.696 5.15694 71.8338 5.23944 72.0172 5.27614C72.2551 5.32375 72.4922 5.40189 72.7239 5.23689C72.9326 5.08826 72.9988 4.90618 72.8925 4.66814C73.0008 4.46791 73.058 4.247 73.0595 4.02271C73.5334 4.02816 73.7842 4.30908 73.6954 4.75936C73.6031 5.22417 73.364 5.59341 72.9042 5.81328C72.2233 6.14204 71.4932 6.37299 70.7385 6.49832L70.7362 6.49433C70.6848 6.50305 70.6338 6.5125 70.5828 6.52231C70.3706 6.55284 70.1545 6.57391 69.9403 6.587C69.9547 6.38603 69.9773 6.18578 70.0108 5.98772ZM66.3157 4.94252H66.3118V4.93998L66.3157 4.94252ZM66.0949 5.81473C65.6347 5.5945 65.3941 5.22526 65.3037 4.76081C65.2146 4.31054 65.4653 4.02961 65.9396 4.02416C65.9408 4.24845 65.9979 4.46941 66.1062 4.6696C66.0003 4.90764 66.0673 5.08971 66.2752 5.23835C66.5065 5.40334 66.7425 5.3252 66.9815 5.2776C67.1653 5.24125 67.3031 5.1584 67.3919 5.03302C67.4607 4.98873 67.5193 4.93207 67.5643 4.86636C67.6093 4.80064 67.6398 4.7272 67.654 4.65033C67.7046 4.42828 67.7883 4.20696 67.6115 3.99109C67.4523 3.79593 67.2572 3.73452 67.0025 3.83337C66.7884 3.73191 66.552 3.67805 66.3118 3.67601C66.3177 3.23372 66.6186 2.99968 67.1007 3.08291C67.5991 3.16867 67.9962 3.39181 68.2298 3.82101C68.582 4.4565 68.8294 5.13795 68.9638 5.84235L68.9599 5.84453C68.9689 5.8925 68.9794 5.94011 68.9899 5.98772C69.0226 6.18578 69.0448 6.38748 69.0592 6.58736C68.8431 6.57428 68.6309 6.5532 68.4163 6.52267C68.3653 6.51286 68.3143 6.50341 68.2633 6.49469L68.261 6.49869C67.5062 6.37379 66.7759 6.1432 66.0949 5.81473ZM67.2969 9.97225V9.97407H67.2942L67.2969 9.97225ZM66.3118 9.05752V9.05498H66.3141L66.3118 9.05752ZM68.9626 8.15552C68.8284 8.85951 68.5813 9.54058 68.2294 10.1758C67.9935 10.605 67.5983 10.8281 67.1003 10.9139C66.6179 10.9986 66.3169 10.7645 66.3118 10.3211C66.5521 10.3197 66.7888 10.2663 67.0033 10.1652C67.258 10.2641 67.453 10.2016 67.6123 10.0075C67.7891 9.79163 67.7054 9.5714 67.6547 9.34826C67.6406 9.27135 67.6101 9.19785 67.5651 9.13207C67.5201 9.0663 67.4615 9.00957 67.3927 8.96522C67.3451 8.90109 67.2841 8.84654 67.2135 8.80478C67.1429 8.76302 67.064 8.7349 66.9815 8.72209C66.7436 8.67448 66.5065 8.59635 66.2752 8.76134C66.0665 8.90998 66.0003 9.09205 66.1062 9.33009C65.9979 9.53015 65.9408 9.75099 65.9396 9.97516C65.4653 9.97007 65.2146 9.68915 65.3037 9.23887C65.3956 8.77369 65.6347 8.40482 66.0949 8.18495C66.7758 7.85614 67.5059 7.62519 68.2606 7.49991L68.2629 7.50391C68.3139 7.49518 68.3649 7.48537 68.4159 7.47556C68.6285 7.44503 68.8443 7.42432 69.0588 7.41087C69.0444 7.61257 69.0222 7.81245 68.9895 8.01088C68.979 8.05848 68.9685 8.10609 68.9595 8.1537L68.9626 8.15552ZM72.683 9.05498H72.6854C72.6854 9.05498 72.6854 9.0568 72.6854 9.05752C72.6849 9.05664 72.6844 9.05578 72.6838 9.05498H72.683ZM71.7042 9.97371H71.7018C71.7018 9.97371 71.7018 9.97371 71.7018 9.97189L71.7042 9.97371ZM73.695 9.23887C73.7838 9.68915 73.533 9.97007 73.0591 9.97516C73.0576 9.75098 73.0004 9.53018 72.8921 9.33009C72.9984 9.09205 72.931 8.90998 72.7235 8.76134C72.4899 8.59635 72.2563 8.67448 72.0168 8.72209C71.9345 8.73522 71.8559 8.76359 71.7855 8.80553C71.7152 8.84748 71.6546 8.90214 71.6072 8.96631C71.5384 9.01066 71.4798 9.06739 71.4348 9.13316C71.3898 9.19894 71.3593 9.27244 71.3452 9.34935C71.2942 9.5714 71.2108 9.79272 71.3872 10.0086C71.5468 10.2034 71.7419 10.2652 71.9966 10.1663C72.2113 10.2671 72.4481 10.3201 72.6885 10.3211C72.6826 10.7634 72.3817 10.9975 71.8992 10.9142C71.4012 10.8285 71.006 10.6053 70.7701 10.1761C70.4178 9.54054 70.1704 8.85896 70.0361 8.15443L70.0404 8.15225C70.0314 8.10464 70.0209 8.05703 70.0104 8.00942C69.9777 7.811 69.9551 7.60966 69.9411 7.40942C70.1568 7.42286 70.3694 7.44358 70.5836 7.47411C70.6346 7.48392 70.6856 7.49373 70.737 7.50245L70.7393 7.49845C71.494 7.62379 72.2241 7.85474 72.905 8.1835C73.3644 8.40482 73.6035 8.77369 73.6958 9.23887H73.695Z" fill="url(#paint2_linear_126_348)"/>
<path d="M76.2243 6.44308C75.8953 6.39838 75.5449 6.37512 75.217 6.41074C74.4383 6.49505 73.6628 6.59717 72.8906 6.7171C73.3967 6.53975 73.7935 6.23739 74.1058 5.82491C74.4893 5.31794 74.369 4.4599 73.7553 4.00417C73.5435 3.84986 73.2943 3.74664 73.0296 3.70363C72.9835 3.45656 72.8729 3.2239 72.7076 3.02621C72.2193 2.45419 71.3 2.34189 70.7568 2.69913C70.4259 2.91171 70.1515 3.19216 69.9547 3.51901C70.0151 3.11925 70.0715 2.7213 70.1144 2.31972C70.1693 1.81312 70.1447 1.29197 70.1245 0.778825C70.1085 0.356894 69.8811 0.0836027 69.5221 0.00910168C69.2184 -0.0541333 68.9833 0.215161 68.9038 0.722495C68.8559 1.02958 68.8314 1.35666 68.8696 1.66302C68.9599 2.38986 69.0693 3.11355 69.1978 3.83409C69.0078 3.36165 68.6834 2.99132 68.2415 2.69986C67.6987 2.34189 66.7794 2.45419 66.2912 3.02694C66.1258 3.22462 66.0153 3.45729 65.9692 3.70435C65.7045 3.74736 65.4552 3.85059 65.2434 4.0049C64.6305 4.46063 64.5102 5.31866 64.893 5.82563C65.2045 6.23812 65.6016 6.54048 66.1078 6.71783C65.3368 6.59814 64.5615 6.49602 63.7817 6.41147C63.4535 6.37512 63.103 6.39911 62.774 6.44381C62.2289 6.51649 61.9423 6.73745 62.0097 7.02092C62.0899 7.35563 62.3827 7.56787 62.8359 7.58349C63.3857 7.60239 63.9441 7.62565 64.4872 7.57441C64.9155 7.53371 65.3438 7.48137 65.7722 7.42541C65.4218 7.6089 65.1213 7.86503 64.8937 8.17405C64.5102 8.68102 64.6305 9.53906 65.2442 9.99478C65.4561 10.1489 65.7053 10.2521 65.9699 10.2953C66.0161 10.5424 66.1267 10.775 66.292 10.9727C66.7802 11.5444 67.6995 11.6567 68.2423 11.2998C68.6842 11.0091 69.0086 10.6384 69.1986 10.166C69.0701 10.8855 68.9607 11.6092 68.8703 12.337C68.8314 12.6434 68.8567 12.9705 68.9046 13.2776C68.9825 13.7863 69.2192 14.0538 69.5229 13.9909C69.8819 13.9164 70.1093 13.6432 70.1261 13.2198C70.1463 12.7066 70.1708 12.1855 70.1159 11.6785C70.0727 11.2787 70.0166 10.879 69.9563 10.4792C70.153 10.806 70.4274 11.0864 70.7584 11.2987C71.3035 11.6567 72.2208 11.5444 72.7091 10.9717C72.8744 10.7739 72.9849 10.5413 73.0311 10.2942C73.2954 10.251 73.5444 10.1479 73.7561 9.99406C74.369 9.53833 74.4893 8.6803 74.1065 8.17332C73.8789 7.86438 73.5784 7.60827 73.2281 7.42468C73.6564 7.48065 74.0828 7.53371 74.513 7.57368C75.0558 7.62492 75.6142 7.60167 76.164 7.58277C76.6176 7.56714 76.9104 7.3549 76.9902 7.02019C77.0583 6.73673 76.7679 6.51686 76.2243 6.44308ZM71.7022 4.02707H71.7045C71.7038 4.02712 71.703 4.02712 71.7022 4.02707ZM72.6865 4.94252C72.6865 4.94252 72.6865 4.94252 72.6865 4.94507H72.6842C72.6849 4.94415 72.6857 4.9433 72.6865 4.94252ZM70.0108 5.98772C70.0213 5.94011 70.0318 5.8925 70.0408 5.84453L70.0365 5.84235C70.1708 5.13795 70.4183 4.4565 70.7705 3.82101C71.0068 3.39181 71.402 3.16686 71.8996 3.08291C72.382 2.99968 72.683 3.23372 72.6889 3.67601C72.4483 3.67737 72.2113 3.73074 71.9966 3.83191C71.7419 3.73306 71.5468 3.79557 71.3872 3.98964C71.2108 4.20551 71.2942 4.42574 71.3452 4.64888C71.3593 4.72574 71.3898 4.79919 71.4348 4.8649C71.4798 4.93062 71.5384 4.98728 71.6072 5.03156C71.696 5.15694 71.8338 5.23944 72.0172 5.27614C72.2551 5.32375 72.4922 5.40189 72.7239 5.23689C72.9326 5.08826 72.9988 4.90618 72.8925 4.66814C73.0008 4.46791 73.058 4.247 73.0595 4.02271C73.5334 4.02816 73.7842 4.30908 73.6954 4.75936C73.6031 5.22417 73.364 5.59341 72.9042 5.81328C72.2233 6.14204 71.4932 6.37299 70.7385 6.49832L70.7362 6.49433C70.6848 6.50305 70.6338 6.5125 70.5828 6.52231C70.3706 6.55284 70.1545 6.57391 69.9403 6.587C69.9547 6.38603 69.9773 6.18578 70.0108 5.98772ZM66.3157 4.94252H66.3118V4.93998L66.3157 4.94252ZM66.0949 5.81473C65.6347 5.5945 65.3941 5.22526 65.3037 4.76081C65.2146 4.31054 65.4653 4.02961 65.9396 4.02416C65.9408 4.24845 65.9979 4.46941 66.1062 4.6696C66.0003 4.90764 66.0673 5.08971 66.2752 5.23835C66.5065 5.40334 66.7425 5.3252 66.9815 5.2776C67.1653 5.24125 67.3031 5.1584 67.3919 5.03302C67.4607 4.98873 67.5193 4.93207 67.5643 4.86636C67.6093 4.80064 67.6398 4.7272 67.654 4.65033C67.7046 4.42828 67.7883 4.20696 67.6115 3.99109C67.4523 3.79593 67.2572 3.73452 67.0025 3.83337C66.7884 3.73191 66.552 3.67805 66.3118 3.67601C66.3177 3.23372 66.6186 2.99968 67.1007 3.08291C67.5991 3.16867 67.9962 3.39181 68.2298 3.82101C68.582 4.4565 68.8294 5.13795 68.9638 5.84235L68.9599 5.84453C68.9689 5.8925 68.9794 5.94011 68.9899 5.98772C69.0226 6.18578 69.0448 6.38748 69.0592 6.58736C68.8431 6.57428 68.6309 6.5532 68.4163 6.52267C68.3653 6.51286 68.3143 6.50341 68.2633 6.49469L68.261 6.49869C67.5062 6.37379 66.7759 6.1432 66.0949 5.81473ZM67.2969 9.97225V9.97407H67.2942L67.2969 9.97225ZM66.3118 9.05752V9.05498H66.3141L66.3118 9.05752ZM68.9626 8.15552C68.8284 8.85951 68.5813 9.54058 68.2294 10.1758C67.9935 10.605 67.5983 10.8281 67.1003 10.9139C66.6179 10.9986 66.3169 10.7645 66.3118 10.3211C66.5521 10.3197 66.7888 10.2663 67.0033 10.1652C67.258 10.2641 67.453 10.2016 67.6123 10.0075C67.7891 9.79163 67.7054 9.5714 67.6547 9.34826C67.6406 9.27135 67.6101 9.19785 67.5651 9.13207C67.5201 9.0663 67.4615 9.00957 67.3927 8.96522C67.3451 8.90109 67.2841 8.84654 67.2135 8.80478C67.1429 8.76302 67.064 8.7349 66.9815 8.72209C66.7436 8.67448 66.5065 8.59635 66.2752 8.76134C66.0665 8.90998 66.0003 9.09205 66.1062 9.33009C65.9979 9.53015 65.9408 9.75099 65.9396 9.97516C65.4653 9.97007 65.2146 9.68915 65.3037 9.23887C65.3956 8.77369 65.6347 8.40482 66.0949 8.18495C66.7758 7.85614 67.5059 7.62519 68.2606 7.49991L68.2629 7.50391C68.3139 7.49518 68.3649 7.48537 68.4159 7.47556C68.6285 7.44503 68.8443 7.42432 69.0588 7.41087C69.0444 7.61257 69.0222 7.81245 68.9895 8.01088C68.979 8.05848 68.9685 8.10609 68.9595 8.1537L68.9626 8.15552ZM72.683 9.05498H72.6854C72.6854 9.05498 72.6854 9.0568 72.6854 9.05752C72.6849 9.05664 72.6844 9.05578 72.6838 9.05498H72.683ZM71.7042 9.97371H71.7018C71.7018 9.97371 71.7018 9.97371 71.7018 9.97189L71.7042 9.97371ZM73.695 9.23887C73.7838 9.68915 73.533 9.97007 73.0591 9.97516C73.0576 9.75098 73.0004 9.53018 72.8921 9.33009C72.9984 9.09205 72.931 8.90998 72.7235 8.76134C72.4899 8.59635 72.2563 8.67448 72.0168 8.72209C71.9345 8.73522 71.8559 8.76359 71.7855 8.80553C71.7152 8.84748 71.6546 8.90214 71.6072 8.96631C71.5384 9.01066 71.4798 9.06739 71.4348 9.13316C71.3898 9.19894 71.3593 9.27244 71.3452 9.34935C71.2942 9.5714 71.2108 9.79272 71.3872 10.0086C71.5468 10.2034 71.7419 10.2652 71.9966 10.1663C72.2113 10.2671 72.4481 10.3201 72.6885 10.3211C72.6826 10.7634 72.3817 10.9975 71.8992 10.9142C71.4012 10.8285 71.006 10.6053 70.7701 10.1761C70.4178 9.54054 70.1704 8.85896 70.0361 8.15443L70.0404 8.15225C70.0314 8.10464 70.0209 8.05703 70.0104 8.00942C69.9777 7.811 69.9551 7.60966 69.9411 7.40942C70.1568 7.42286 70.3694 7.44358 70.5836 7.47411C70.6346 7.48392 70.6856 7.49373 70.737 7.50245L70.7393 7.49845C71.494 7.62379 72.2241 7.85474 72.905 8.1835C73.3644 8.40482 73.6035 8.77369 73.6958 9.23887H73.695Z" fill="url(#paint3_linear_126_348)"/>
<path d="M104.07 20.2706C104.059 19.5371 103.501 19.0166 102.71 19.0004C101.813 18.9816 100.952 19.6708 101.002 20.3634C101.054 21.0812 101.987 21.8854 102.699 21.827C103.422 21.7705 104.083 21.0209 104.07 20.2706Z" fill="url(#paint4_linear_126_348)"/>
<path d="M104.07 20.2706C104.059 19.5371 103.501 19.0166 102.71 19.0004C101.813 18.9816 100.952 19.6708 101.002 20.3634C101.054 21.0812 101.987 21.8854 102.699 21.827C103.422 21.7705 104.083 21.0209 104.07 20.2706Z" fill="url(#paint5_linear_126_348)"/>
<path d="M135.849 20H107.033C106.88 20.4628 107.247 20.6718 108.304 20.6653C112.913 20.6376 117.522 20.6185 122.132 20.6082C125.153 20.6082 128.174 20.6393 131.195 20.6549C132.467 20.6614 133.744 20.6932 135.004 20.6484C135.404 20.6341 135.768 20.4102 136.149 20.2823L135.849 20Z" fill="url(#paint6_linear_126_348)"/>
<path d="M135.849 20H107.033C106.88 20.4628 107.247 20.6718 108.304 20.6653C112.913 20.6376 117.522 20.6185 122.132 20.6082C125.153 20.6082 128.174 20.6393 131.195 20.6549C132.467 20.6614 133.744 20.6932 135.004 20.6484C135.404 20.6341 135.768 20.4102 136.149 20.2823L135.849 20Z" fill="url(#paint7_linear_126_348)"/>
<path d="M32.0002 19.2706C32.0126 18.5371 32.5702 18.0166 33.3616 18.0004C34.2581 17.9816 35.119 18.6708 35.0691 19.3634C35.0173 20.0812 34.084 20.8854 33.3728 20.827C32.6477 20.7705 31.9883 20.0209 32.0002 19.2706Z" fill="url(#paint8_linear_126_348)"/>
<path d="M0.30079 19H29.1156C29.2692 19.4628 28.9028 19.6718 27.8448 19.6653C23.2366 19.6376 18.6275 19.6185 14.0176 19.6082C10.9966 19.6082 7.97554 19.6393 4.9545 19.6549C3.68304 19.6614 2.40632 19.6932 1.14537 19.6484C0.744751 19.6341 0.380257 19.4089 0 19.2823L0.30079 19Z" fill="url(#paint9_linear_126_348)"/>
<defs>
<linearGradient id="paint0_linear_126_348" x1="37" y1="19.498" x2="101" y2="19.498" gradientUnits="userSpaceOnUse">
<stop stop-color="#B27F2A"/>
<stop offset="0.06" stop-color="#B7862E"/>
<stop offset="0.14" stop-color="#C49939"/>
<stop offset="0.24" stop-color="#DAB84C"/>
<stop offset="0.33" stop-color="#F4DD62"/>
<stop offset="0.52" stop-color="#F4E38B"/>
<stop offset="0.66" stop-color="#F4DD62"/>
<stop offset="1" stop-color="#B27F2A"/>
</linearGradient>
<linearGradient id="paint1_linear_126_348" x1="37" y1="19.498" x2="101" y2="19.498" gradientUnits="userSpaceOnUse">
<stop stop-color="#B27F2A"/>
<stop offset="0.06" stop-color="#B7862E"/>
<stop offset="0.14" stop-color="#C49939"/>
<stop offset="0.24" stop-color="#DAB84C"/>
<stop offset="0.33" stop-color="#F4DD62"/>
<stop offset="0.52" stop-color="#F4E38B"/>
<stop offset="0.66" stop-color="#F4DD62"/>
<stop offset="1" stop-color="#B27F2A"/>
</linearGradient>
<linearGradient id="paint2_linear_126_348" x1="62.0007" y1="6.99912" x2="76.9984" y2="6.99912" gradientUnits="userSpaceOnUse">
<stop stop-color="#B27F2A"/>
<stop offset="0.06" stop-color="#B7862E"/>
<stop offset="0.14" stop-color="#C49939"/>
<stop offset="0.24" stop-color="#DAB84C"/>
<stop offset="0.33" stop-color="#F4DD62"/>
<stop offset="0.52" stop-color="#F4E38B"/>
<stop offset="0.66" stop-color="#F4DD62"/>
<stop offset="1" stop-color="#B27F2A"/>
</linearGradient>
<linearGradient id="paint3_linear_126_348" x1="62.0007" y1="6.99912" x2="76.9984" y2="6.99912" gradientUnits="userSpaceOnUse">
<stop stop-color="#B27F2A"/>
<stop offset="0.06" stop-color="#B7862E"/>
<stop offset="0.14" stop-color="#C49939"/>
<stop offset="0.24" stop-color="#DAB84C"/>
<stop offset="0.33" stop-color="#F4DD62"/>
<stop offset="0.52" stop-color="#F4E38B"/>
<stop offset="0.66" stop-color="#F4DD62"/>
<stop offset="1" stop-color="#B27F2A"/>
</linearGradient>
<linearGradient id="paint4_linear_126_348" x1="101" y1="20.4166" x2="104.07" y2="20.4166" gradientUnits="userSpaceOnUse">
<stop stop-color="#B27F2A"/>
<stop offset="0.06" stop-color="#B7862E"/>
<stop offset="0.14" stop-color="#C49939"/>
<stop offset="0.24" stop-color="#DAB84C"/>
<stop offset="0.33" stop-color="#F4DD62"/>
<stop offset="0.52" stop-color="#F4E38B"/>
<stop offset="0.66" stop-color="#F4DD62"/>
<stop offset="1" stop-color="#B27F2A"/>
</linearGradient>
<linearGradient id="paint5_linear_126_348" x1="101" y1="20.4166" x2="104.07" y2="20.4166" gradientUnits="userSpaceOnUse">
<stop stop-color="#B27F2A"/>
<stop offset="0.06" stop-color="#B7862E"/>
<stop offset="0.14" stop-color="#C49939"/>
<stop offset="0.24" stop-color="#DAB84C"/>
<stop offset="0.33" stop-color="#F4DD62"/>
<stop offset="0.52" stop-color="#F4E38B"/>
<stop offset="0.66" stop-color="#F4DD62"/>
<stop offset="1" stop-color="#B27F2A"/>
</linearGradient>
<linearGradient id="paint6_linear_126_348" x1="107" y1="20.3362" x2="136.15" y2="20.3362" gradientUnits="userSpaceOnUse">
<stop stop-color="#B27F2A"/>
<stop offset="0.06" stop-color="#B7862E"/>
<stop offset="0.14" stop-color="#C49939"/>
<stop offset="0.24" stop-color="#DAB84C"/>
<stop offset="0.33" stop-color="#F4DD62"/>
<stop offset="0.52" stop-color="#F4E38B"/>
<stop offset="0.66" stop-color="#F4DD62"/>
<stop offset="1" stop-color="#B27F2A"/>
</linearGradient>
<linearGradient id="paint7_linear_126_348" x1="107" y1="20.3362" x2="136.15" y2="20.3362" gradientUnits="userSpaceOnUse">
<stop stop-color="#B27F2A"/>
<stop offset="0.06" stop-color="#B7862E"/>
<stop offset="0.14" stop-color="#C49939"/>
<stop offset="0.24" stop-color="#DAB84C"/>
<stop offset="0.33" stop-color="#F4DD62"/>
<stop offset="0.52" stop-color="#F4E38B"/>
<stop offset="0.66" stop-color="#F4DD62"/>
<stop offset="1" stop-color="#B27F2A"/>
</linearGradient>
<linearGradient id="paint8_linear_126_348" x1="32.0002" y1="19.4166" x2="35.0711" y2="19.4166" gradientUnits="userSpaceOnUse">
<stop stop-color="#B27F2A"/>
<stop offset="0.06" stop-color="#B7862E"/>
<stop offset="0.14" stop-color="#C49939"/>
<stop offset="0.24" stop-color="#DAB84C"/>
<stop offset="0.33" stop-color="#F4DD62"/>
<stop offset="0.52" stop-color="#F4E38B"/>
<stop offset="0.66" stop-color="#F4DD62"/>
<stop offset="1" stop-color="#B27F2A"/>
</linearGradient>
<linearGradient id="paint9_linear_126_348" x1="0" y1="19.3362" x2="29.1491" y2="19.3362" gradientUnits="userSpaceOnUse">
<stop stop-color="#B27F2A"/>
<stop offset="0.06" stop-color="#B7862E"/>
<stop offset="0.14" stop-color="#C49939"/>
<stop offset="0.24" stop-color="#DAB84C"/>
<stop offset="0.33" stop-color="#F4DD62"/>
<stop offset="0.52" stop-color="#F4E38B"/>
<stop offset="0.66" stop-color="#F4DD62"/>
<stop offset="1" stop-color="#B27F2A"/>
</linearGradient>
</defs>
</svg>
