<svg width="182" height="182" viewBox="0 0 182 182" fill="none" xmlns="http://www.w3.org/2000/svg">
<path d="M90.8259 158.082L93.0812 169.933L91.6539 169.821L89.9761 160.181L89.8628 160.172L86.6467 169.425L85.0608 169.3L83.3377 159.657L83.2244 159.648L80.0537 168.904L78.6263 168.791L82.7148 157.442L84.1648 157.556L85.9946 167.002L86.0853 167.01L89.3759 157.968L90.8259 158.082Z" fill="#FACE8D"/>
<path d="M72.6457 155.32L68.5245 166.202L67.2067 165.703L69.042 160.857L63.2396 158.66L61.4043 163.506L60.0866 163.007L64.2078 152.124L65.5256 152.624L63.6823 157.491L69.4847 159.688L71.328 154.821L72.6457 155.32Z" fill="#FACE8D"/>
<path d="M57.5246 148.522L50.9495 158.122L45.1553 154.154L45.8616 153.123L50.4932 156.295L52.7149 153.051L48.3833 150.084L49.0896 149.053L53.4212 152.019L55.6557 148.757L50.9491 145.533L51.6554 144.502L57.5246 148.522Z" fill="#FACE8D"/>
<path d="M45.9459 139.622L37.3473 147.462L34.6982 144.556C34.0857 143.885 33.6976 143.229 33.5341 142.588C33.3678 141.951 33.389 141.347 33.5976 140.777C33.8062 140.208 34.1638 139.692 34.6704 139.23C35.177 138.768 35.7207 138.462 36.3014 138.312C36.8821 138.162 37.4797 138.199 38.0941 138.423C38.7057 138.649 39.3152 139.096 39.9226 139.762L42.0664 142.113L41.126 142.971L39.0128 140.653C38.5942 140.194 38.1902 139.886 37.8006 139.728C37.4085 139.568 37.0318 139.537 36.6707 139.636C36.3042 139.735 35.9488 139.941 35.6045 140.255C35.2602 140.568 35.018 140.907 34.8779 141.271C34.7378 141.634 34.7267 142.021 34.8445 142.432C34.9595 142.844 35.2288 143.283 35.6525 143.748L37.3216 145.578L44.9965 138.58L45.9459 139.622ZM38.3928 139.096L40.326 133.458L41.4286 134.667L39.4647 140.272L38.3928 139.096Z" fill="#FACE8D"/>
<path d="M36.1324 127.501L25.9671 133.164L22.5492 127.029L23.6412 126.421L26.3733 131.325L29.808 129.411L27.2529 124.825L28.3449 124.216L30.9 128.803L34.3546 126.878L31.5783 121.895L32.6703 121.286L36.1324 127.501Z" fill="#FACE8D"/>
<path d="M16.9577 106.917L15.7179 107.077L14.6018 98.4209L15.8415 98.261L16.3095 101.89L26.6106 100.562L26.7908 101.959L16.4897 103.288L16.9577 106.917Z" fill="#FACE8D"/>
<path d="M26.1165 88.9345L25.954 90.4028L14.8582 84.8761L15.0182 83.4304L27.0539 80.4635L26.8914 81.9318L16.7729 84.3105L16.7629 84.4009L26.1165 88.9345ZM21.6586 87.8924L22.3136 81.974L23.556 82.1115L22.901 88.0299L21.6586 87.8924Z" fill="#FACE8D"/>
<path d="M22.6268 65.0751C22.0624 64.9425 21.5479 65.0497 21.0832 65.3966C20.6185 65.7436 20.2658 66.2482 20.0251 66.9103C19.8491 67.3945 19.7734 67.8466 19.798 68.2666C19.8239 68.6831 19.9371 69.0426 20.1374 69.3452C20.3391 69.6442 20.6143 69.8571 20.9632 69.984C21.2551 70.0901 21.5313 70.1119 21.7918 70.0494C22.0501 69.9821 22.2887 69.8633 22.5078 69.6931C22.7233 69.5215 22.9196 69.3309 23.0966 69.1212C23.27 68.9101 23.4203 68.7129 23.5475 68.5294L24.2503 67.5274C24.4286 67.2698 24.647 66.9905 24.9056 66.6895C25.1654 66.3849 25.4675 66.1139 25.8118 65.8763C26.1538 65.6339 26.5393 65.4717 26.9681 65.3898C27.3968 65.3079 27.8676 65.3601 28.3802 65.5465C28.9711 65.7613 29.4488 66.1103 29.8133 66.5934C30.179 67.073 30.3951 67.6594 30.4615 68.3525C30.5292 69.0422 30.4103 69.8071 30.1049 70.6472C29.8202 71.4304 29.4473 72.0626 28.9861 72.5439C28.5263 73.0216 28.0108 73.342 27.4397 73.5052C26.8698 73.6648 26.278 73.6572 25.6644 73.4825L26.1614 72.1155C26.5873 72.23 26.9795 72.2154 27.3381 72.0717C27.6944 71.9231 28.0063 71.6859 28.2739 71.36C28.5393 71.0292 28.7509 70.6467 28.9088 70.2124C29.0925 69.7069 29.1757 69.2232 29.1581 68.7614C29.1371 68.2983 29.0215 67.8956 28.8114 67.5532C28.5978 67.2095 28.2916 66.9652 27.8929 66.8203C27.5298 66.6883 27.1975 66.6823 26.8959 66.8024C26.5942 66.9225 26.3121 67.1222 26.0493 67.4015C25.7866 67.6808 25.5319 67.9933 25.2853 68.3389L24.4117 69.5448C23.8554 70.3099 23.2589 70.8588 22.622 71.1916C21.9852 71.5243 21.2983 71.5567 20.5614 71.2888C19.9491 71.0662 19.4753 70.7066 19.14 70.2099C18.8024 69.7083 18.6094 69.1303 18.5612 68.4759C18.5106 67.8167 18.6122 67.1383 18.8658 66.4405C19.1221 65.7356 19.4762 65.155 19.9283 64.6987C20.3768 64.241 20.8764 63.931 21.4272 63.7685C21.9793 63.6024 22.5345 63.6108 23.0927 63.7936L22.6268 65.0751Z" fill="#FACE8D"/>
<path d="M25.8036 54.4891L24.7629 53.7966L29.5977 46.531L30.6383 47.2234L28.6112 50.2697L37.2582 56.0236L36.4776 57.1967L27.8306 51.4428L25.8036 54.4891Z" fill="#FACE8D"/>
<path d="M44.1896 47.2588L36.2353 38.7656L41.3611 33.9651L42.2156 34.8774L38.1183 38.7148L40.8059 41.5845L44.6378 37.9958L45.4923 38.9081L41.6604 42.4969L44.3636 45.3832L48.5273 41.4838L49.3817 42.3961L44.1896 47.2588Z" fill="#FACE8D"/>
<path d="M59.8854 22.032L61.4694 21.4667L68.4404 29.2347L68.5688 29.1889L69.0467 18.7625L70.6307 18.1973L74.5419 29.1566L73.3004 29.5997L70.3288 21.2731L70.2218 21.3113L69.7685 30.8601L68.5699 31.2879L62.1735 24.1836L62.0665 24.2218L65.038 32.5483L63.7965 32.9914L59.8854 22.032Z" fill="#FACE8D"/>
<path d="M82.5804 27.6531L81.6276 16.0558L88.6268 15.4807L88.7291 16.7265L83.1343 17.1862L83.4563 21.1048L88.6886 20.6749L88.791 21.9207L83.5586 22.3506L83.8824 26.2919L89.5678 25.8248L89.6701 27.0706L82.5804 27.6531Z" fill="#FACE8D"/>
<path d="M97.1873 27.2871L98.8294 15.7672L105.782 16.7582L105.605 17.9957L100.048 17.2035L99.4932 21.096L104.691 21.8369L104.514 23.0743L99.3168 22.3335L98.7587 26.2485L104.406 27.0535L104.23 28.291L97.1873 27.2871Z" fill="#FACE8D"/>
<path d="M114.699 20.232L115.154 19.0678L123.282 22.2448L122.827 23.4091L119.419 22.077L115.638 31.7507L114.326 31.2378L118.107 21.5641L114.699 20.232Z" fill="#FACE8D"/>
<path d="M135.903 33.1295C136.177 32.6188 136.207 32.0941 135.993 31.5553C135.778 31.0165 135.382 30.545 134.805 30.1408C134.383 29.8452 133.966 29.6549 133.554 29.5697C133.145 29.4867 132.769 29.5027 132.425 29.6177C132.084 29.7349 131.807 29.9455 131.594 30.2496C131.415 30.504 131.323 30.7651 131.315 31.0329C131.313 31.2997 131.366 31.561 131.474 31.8168C131.584 32.0694 131.717 32.3084 131.873 32.5337C132.032 32.756 132.184 32.9523 132.328 33.1227L133.113 34.0614C133.316 34.3004 133.529 34.5838 133.753 34.9115C133.979 35.2415 134.163 35.6035 134.303 35.9977C134.448 36.3909 134.505 36.8052 134.473 37.2405C134.441 37.6759 134.268 38.1169 133.955 38.5637C133.595 39.0787 133.134 39.4495 132.573 39.6762C132.015 39.905 131.392 39.9616 130.706 39.8459C130.022 39.7324 129.314 39.4192 128.582 38.9064C127.899 38.4282 127.385 37.9041 127.04 37.3339C126.698 36.766 126.522 36.185 126.513 35.591C126.507 34.9993 126.667 34.4297 126.995 33.8824L128.187 34.717C127.966 35.0986 127.878 35.4812 127.924 35.8647C127.975 36.2474 128.123 36.6102 128.368 36.9532C128.619 37.2952 128.934 37.5988 129.312 37.8639C129.753 38.1725 130.198 38.3783 130.649 38.4811C131.101 38.5809 131.52 38.5737 131.905 38.4597C132.293 38.3425 132.608 38.1102 132.852 37.7627C133.073 37.4463 133.165 37.1268 133.127 36.8044C133.09 36.482 132.97 36.1576 132.768 35.8314C132.567 35.5052 132.331 35.1782 132.061 34.8504L131.123 33.6939C130.529 32.9583 130.153 32.2398 129.997 31.5384C129.841 30.837 129.988 30.1652 130.438 29.523C130.811 28.9894 131.282 28.6251 131.848 28.4301C132.42 28.2342 133.029 28.1978 133.673 28.3209C134.323 28.443 134.952 28.7171 135.56 29.1431C136.174 29.5734 136.643 30.066 136.966 30.6209C137.292 31.1728 137.462 31.7357 137.476 32.3098C137.493 32.8861 137.341 33.4201 137.02 33.9118L135.903 33.1295Z" fill="#FACE8D"/>
<path d="M152.664 47.5243L153.715 46.8474L158.441 54.1843L157.39 54.8612L155.409 51.7851L146.677 57.4095L145.914 56.2248L154.646 50.6005L152.664 47.5243Z" fill="#FACE8D"/>
<path d="M151.961 67.2462L162.955 63.4339L164.244 67.1488C164.541 68.0077 164.639 68.7636 164.537 69.4165C164.438 70.0682 164.18 70.6145 163.764 71.0556C163.348 71.4966 162.816 71.8294 162.168 72.0541C161.52 72.2787 160.9 72.3454 160.307 72.2543C159.714 72.1632 159.18 71.8935 158.703 71.4453C158.231 70.9957 157.847 70.3451 157.551 69.4933L156.509 66.4871L157.712 66.0701L158.739 69.0334C158.943 69.6203 159.192 70.063 159.488 70.3613C159.785 70.6632 160.119 70.8401 160.49 70.8919C160.866 70.9461 161.273 70.8968 161.714 70.7442C162.154 70.5916 162.51 70.3759 162.782 70.0971C163.054 69.8183 163.217 69.4671 163.271 69.0436C163.328 68.6189 163.254 68.1094 163.048 67.5153L162.236 65.1748L152.423 68.5775L151.961 67.2462ZM158.694 70.7086L154.694 75.1268L154.158 73.5807L158.173 69.2055L158.694 70.7086Z" fill="#FACE8D"/>
<path d="M156.27 82.7151L156.129 81.2445L168.12 84.3904L168.258 85.8384L157.081 91.1991L156.94 89.7286L166.361 85.3348L166.352 85.2443L156.27 82.7151ZM160.847 82.8255L161.413 88.753L160.169 88.872L159.602 82.9444L160.847 82.8255Z" fill="#FACE8D"/>
<path d="M156.321 101.359L156.859 97.8087L168.364 99.5545L167.801 103.262C167.632 104.378 167.257 105.298 166.676 106.022C166.098 106.747 165.349 107.256 164.427 107.549C163.509 107.842 162.454 107.899 161.263 107.718C160.065 107.536 159.066 107.166 158.265 106.608C157.469 106.05 156.9 105.328 156.56 104.441C156.223 103.555 156.143 102.527 156.321 101.359ZM157.884 99.3894L157.57 101.457C157.426 102.408 157.49 103.224 157.762 103.905C158.034 104.586 158.485 105.132 159.117 105.542C159.748 105.952 160.532 106.228 161.468 106.37C162.397 106.511 163.219 106.48 163.936 106.279C164.656 106.078 165.241 105.703 165.692 105.155C166.147 104.607 166.443 103.883 166.579 102.985L166.917 100.76L157.884 99.3894Z" fill="#FACE8D"/>
<path d="M163.719 119.38L152.796 115.37L153.281 114.047L164.205 118.057L163.719 119.38Z" fill="#FACE8D"/>
<path d="M158.749 127.818L159.818 128.467L155.29 135.927L154.221 135.279L156.12 132.151L147.241 126.761L147.972 125.557L156.851 130.946L158.749 127.818Z" fill="#FACE8D"/>
<path d="M148.222 144.674L139.624 136.834L140.573 135.793L149.172 143.633L148.222 144.674Z" fill="#FACE8D"/>
<path d="M129.217 153.136C128.501 152.139 128.063 151.149 127.901 150.164C127.74 149.18 127.831 148.265 128.176 147.42C128.521 146.576 129.096 145.864 129.902 145.285C130.708 144.706 131.567 144.388 132.477 144.331C133.388 144.274 134.284 144.48 135.165 144.947C136.046 145.415 136.845 146.147 137.561 147.144C138.277 148.141 138.716 149.131 138.877 150.116C139.039 151.101 138.947 152.015 138.602 152.86C138.257 153.704 137.682 154.416 136.876 154.995C136.07 155.574 135.212 155.892 134.301 155.949C133.391 156.006 132.495 155.8 131.613 155.333C130.732 154.865 129.933 154.133 129.217 153.136ZM130.325 152.341C130.913 153.159 131.546 153.752 132.224 154.118C132.899 154.487 133.573 154.649 134.245 154.604C134.914 154.562 135.535 154.335 136.107 153.924C136.679 153.513 137.094 152.996 137.351 152.373C137.604 151.753 137.666 151.063 137.536 150.303C137.402 149.546 137.041 148.758 136.453 147.939C135.866 147.121 135.234 146.527 134.559 146.159C133.881 145.792 133.207 145.63 132.538 145.673C131.866 145.717 131.244 145.945 130.671 146.356C130.099 146.767 129.686 147.283 129.432 147.903C129.175 148.526 129.114 149.216 129.247 149.974C129.378 150.733 129.737 151.522 130.325 152.341Z" fill="#FACE8D"/>
<path d="M114.38 166.214L110.34 155.301L111.619 154.828L120.737 161.194L120.844 161.155L117.672 152.587L118.993 152.097L123.033 163.01L121.754 163.483L112.607 157.103L112.5 157.143L115.68 165.732L114.38 166.214Z" fill="#FACE8D"/>
<circle cx="91" cy="91" r="90.5" stroke="#FACE8D"/>
</svg>
