<svg width="116" height="116" viewBox="0 0 116 116" fill="none" xmlns="http://www.w3.org/2000/svg">
<circle cx="58" cy="58" r="57.5" fill="#0E0D0B" stroke="#FACE8D"/>
<path d="M15.744 76V75.64C16.32 75.64 16.68 75.472 16.824 75.136C16.992 74.776 17.076 74.356 17.076 73.876V56.632C17.076 56.392 16.956 56.272 16.716 56.272C16.62 56.272 16.488 56.308 16.32 56.38L12.216 57.676V56.38L20.604 53.464V54.436C20.22 54.604 19.908 54.868 19.668 55.228C19.452 55.588 19.368 56.008 19.416 56.488V73.732C19.416 74.236 19.5 74.68 19.668 75.064C19.836 75.448 20.22 75.64 20.82 75.64V76H15.744ZM41.635 67.504C42.499 67.504 43.255 67.36 43.903 67.072C44.551 66.76 45.079 66.352 45.487 65.848C45.919 65.344 46.231 64.768 46.423 64.12C46.639 63.472 46.747 62.8 46.747 62.104C46.747 61.264 46.615 60.424 46.351 59.584C46.111 58.744 45.739 58 45.235 57.352C44.755 56.68 44.155 56.14 43.435 55.732C42.739 55.3 41.935 55.084 41.023 55.084C40.207 55.084 39.487 55.252 38.863 55.588C38.263 55.9 37.747 56.332 37.315 56.884C36.907 57.412 36.595 58.024 36.379 58.72C36.187 59.416 36.091 60.124 36.091 60.844C36.091 61.66 36.211 62.464 36.451 63.256C36.715 64.048 37.075 64.768 37.531 65.416C38.011 66.04 38.587 66.544 39.259 66.928C39.955 67.312 40.747 67.504 41.635 67.504ZM36.559 73.444C36.943 73.924 37.399 74.308 37.927 74.596C38.479 74.884 38.995 74.98 39.475 74.884C40.507 74.884 41.419 74.644 42.211 74.164C43.003 73.684 43.675 73.048 44.227 72.256C44.803 71.464 45.247 70.612 45.559 69.7C45.895 68.764 46.123 67.9 46.243 67.108C45.547 67.732 44.767 68.164 43.903 68.404C43.063 68.644 42.163 68.764 41.203 68.764C39.979 68.764 38.899 68.56 37.963 68.152C37.051 67.72 36.283 67.168 35.659 66.496C35.059 65.8 34.603 65.008 34.291 64.12C34.003 63.232 33.859 62.32 33.859 61.384C33.859 60.448 34.015 59.524 34.327 58.612C34.639 57.7 35.107 56.896 35.731 56.2C36.355 55.48 37.123 54.904 38.035 54.472C38.971 54.04 40.051 53.824 41.275 53.824C42.643 53.824 43.807 54.076 44.767 54.58C45.751 55.084 46.555 55.768 47.179 56.632C47.803 57.472 48.259 58.456 48.547 59.584C48.859 60.712 49.015 61.888 49.015 63.112C49.015 64.696 48.847 66.292 48.511 67.9C48.175 69.484 47.623 70.912 46.855 72.184C46.111 73.432 45.115 74.452 43.867 75.244C42.643 76.036 41.143 76.432 39.367 76.432C39.031 76.432 38.611 76.396 38.107 76.324C37.603 76.252 37.207 76.192 36.919 76.144C36.751 76.12 36.571 76.096 36.379 76.072C36.211 76.048 36.151 76.036 36.199 76.036V73.444H36.559ZM67.9226 62.68C67.0586 62.68 66.3026 62.836 65.6546 63.148C65.0306 63.436 64.5026 63.832 64.0706 64.336C63.6626 64.84 63.3506 65.416 63.1346 66.064C62.9426 66.712 62.8466 67.384 62.8466 68.08C62.8466 68.92 62.9666 69.76 63.2066 70.6C63.4706 71.44 63.8426 72.196 64.3226 72.868C64.8266 73.516 65.4266 74.056 66.1226 74.488C66.8186 74.896 67.6226 75.1 68.5346 75.1C69.3506 75.1 70.0706 74.944 70.6946 74.632C71.3186 74.296 71.8346 73.864 72.2426 73.336C72.6746 72.784 72.9866 72.16 73.1786 71.464C73.3946 70.768 73.5026 70.06 73.5026 69.34C73.5026 68.524 73.3706 67.72 73.1066 66.928C72.8666 66.136 72.5066 65.428 72.0266 64.804C71.5706 64.156 70.9946 63.64 70.2986 63.256C69.6026 62.872 68.8106 62.68 67.9226 62.68ZM73.0346 56.74C72.6506 56.26 72.1826 55.876 71.6306 55.588C71.1026 55.3 70.5986 55.156 70.1186 55.156C69.0146 55.156 68.0546 55.432 67.2386 55.984C66.4226 56.512 65.7386 57.172 65.1866 57.964C64.6586 58.756 64.2386 59.62 63.9266 60.556C63.6146 61.468 63.4106 62.32 63.3146 63.112C64.0106 62.488 64.7906 62.056 65.6546 61.816C66.5186 61.552 67.4186 61.42 68.3546 61.42C69.5786 61.42 70.6466 61.636 71.5586 62.068C72.4946 62.476 73.2626 63.028 73.8626 63.724C74.4866 64.396 74.9426 65.176 75.2306 66.064C75.5426 66.952 75.6986 67.864 75.6986 68.8C75.6986 69.736 75.5426 70.66 75.2306 71.572C74.9186 72.484 74.4506 73.3 73.8266 74.02C73.2026 74.716 72.4226 75.28 71.4866 75.712C70.5746 76.144 69.5066 76.36 68.2826 76.36C66.9386 76.36 65.7746 76.108 64.7906 75.604C63.8066 75.1 63.0026 74.428 62.3786 73.588C61.7546 72.724 61.2866 71.728 60.9746 70.6C60.6866 69.472 60.5426 68.296 60.5426 67.072C60.5426 65.488 60.7586 63.916 61.1906 62.356C61.6466 60.772 62.3066 59.356 63.1706 58.108C64.0346 56.836 65.0906 55.804 66.3386 55.012C67.5866 54.22 69.0146 53.824 70.6226 53.824C70.9586 53.824 71.3066 53.848 71.6666 53.896C72.0506 53.944 72.3866 53.992 72.6746 54.04C72.8186 54.064 72.9626 54.088 73.1066 54.112C73.2746 54.136 73.3706 54.148 73.3946 54.148V56.74H73.0346ZM95.0022 67.504C95.8662 67.504 96.6222 67.36 97.2702 67.072C97.9182 66.76 98.4462 66.352 98.8542 65.848C99.2862 65.344 99.5982 64.768 99.7902 64.12C100.006 63.472 100.114 62.8 100.114 62.104C100.114 61.264 99.9822 60.424 99.7182 59.584C99.4782 58.744 99.1062 58 98.6022 57.352C98.1222 56.68 97.5222 56.14 96.8022 55.732C96.1062 55.3 95.3022 55.084 94.3902 55.084C93.5742 55.084 92.8542 55.252 92.2302 55.588C91.6302 55.9 91.1142 56.332 90.6822 56.884C90.2742 57.412 89.9622 58.024 89.7462 58.72C89.5542 59.416 89.4582 60.124 89.4582 60.844C89.4582 61.66 89.5782 62.464 89.8182 63.256C90.0822 64.048 90.4422 64.768 90.8982 65.416C91.3782 66.04 91.9542 66.544 92.6262 66.928C93.3222 67.312 94.1142 67.504 95.0022 67.504ZM89.9262 73.444C90.3102 73.924 90.7662 74.308 91.2942 74.596C91.8462 74.884 92.3622 74.98 92.8422 74.884C93.8742 74.884 94.7862 74.644 95.5782 74.164C96.3702 73.684 97.0422 73.048 97.5942 72.256C98.1702 71.464 98.6142 70.612 98.9262 69.7C99.2622 68.764 99.4902 67.9 99.6102 67.108C98.9142 67.732 98.1342 68.164 97.2702 68.404C96.4302 68.644 95.5302 68.764 94.5702 68.764C93.3462 68.764 92.2662 68.56 91.3302 68.152C90.4182 67.72 89.6502 67.168 89.0262 66.496C88.4262 65.8 87.9702 65.008 87.6582 64.12C87.3702 63.232 87.2262 62.32 87.2262 61.384C87.2262 60.448 87.3822 59.524 87.6942 58.612C88.0062 57.7 88.4742 56.896 89.0982 56.2C89.7222 55.48 90.4902 54.904 91.4022 54.472C92.3382 54.04 93.4182 53.824 94.6422 53.824C96.0102 53.824 97.1742 54.076 98.1342 54.58C99.1182 55.084 99.9222 55.768 100.546 56.632C101.17 57.472 101.626 58.456 101.914 59.584C102.226 60.712 102.382 61.888 102.382 63.112C102.382 64.696 102.214 66.292 101.878 67.9C101.542 69.484 100.99 70.912 100.222 72.184C99.4782 73.432 98.4822 74.452 97.2342 75.244C96.0102 76.036 94.5102 76.432 92.7342 76.432C92.3982 76.432 91.9782 76.396 91.4742 76.324C90.9702 76.252 90.5742 76.192 90.2862 76.144C90.1182 76.12 89.9382 76.096 89.7462 76.072C89.5782 76.048 89.5182 76.036 89.5662 76.036V73.444H89.9262Z" fill="white"/>
<path d="M27.643 45.228C26.6677 45.228 25.819 45.0507 25.097 44.696C24.375 44.3413 23.8177 43.8473 23.425 43.214C23.0323 42.5807 22.836 41.846 22.836 41.01H24.508C24.508 41.5293 24.6283 42.0107 24.869 42.454C25.1097 42.8847 25.458 43.233 25.914 43.499C26.3827 43.7523 26.959 43.879 27.643 43.879C28.5423 43.879 29.239 43.6637 29.733 43.233C30.227 42.8023 30.474 42.264 30.474 41.618C30.474 41.086 30.36 40.6617 30.132 40.345C29.904 40.0157 29.5937 39.7497 29.201 39.547C28.821 39.3443 28.3777 39.167 27.871 39.015C27.377 38.863 26.8577 38.692 26.313 38.502C25.287 38.1473 24.527 37.7103 24.033 37.191C23.539 36.659 23.292 35.9687 23.292 35.12C23.2793 34.4107 23.444 33.7837 23.786 33.239C24.128 32.6817 24.6093 32.251 25.23 31.947C25.8633 31.6303 26.6107 31.472 27.472 31.472C28.3207 31.472 29.0553 31.6303 29.676 31.947C30.3093 32.2637 30.797 32.7007 31.139 33.258C31.4937 33.8153 31.6773 34.4487 31.69 35.158H30.018C30.018 34.7907 29.923 34.4297 29.733 34.075C29.543 33.7077 29.2517 33.41 28.859 33.182C28.479 32.954 27.9977 32.84 27.415 32.84C26.693 32.8273 26.0977 33.011 25.629 33.391C25.173 33.771 24.945 34.2967 24.945 34.968C24.945 35.538 25.1033 35.975 25.42 36.279C25.7493 36.583 26.2053 36.8363 26.788 37.039C27.3707 37.229 28.042 37.4507 28.802 37.704C29.4353 37.932 30.0053 38.198 30.512 38.502C31.0187 38.806 31.4113 39.1987 31.69 39.68C31.9813 40.1613 32.127 40.7757 32.127 41.523C32.127 42.1563 31.9623 42.758 31.633 43.328C31.3037 43.8853 30.8033 44.3413 30.132 44.696C29.4733 45.0507 28.6437 45.228 27.643 45.228ZM38.1904 45V31.7H39.7864V45H38.1904ZM46.4064 45V31.7H48.0024L55.0894 42.359V31.7H56.6854V45H55.0894L48.0024 34.341V45H46.4064ZM69.139 45.228C67.8343 45.228 66.707 44.943 65.757 44.373C64.8197 43.7903 64.0913 42.986 63.572 41.96C63.0527 40.9213 62.793 39.718 62.793 38.35C62.793 36.9947 63.0527 35.804 63.572 34.778C64.0913 33.7393 64.8197 32.9287 65.757 32.346C66.707 31.7633 67.8343 31.472 69.139 31.472C70.659 31.472 71.894 31.8393 72.844 32.574C73.8067 33.296 74.421 34.3093 74.687 35.614H72.92C72.7173 34.7907 72.2993 34.132 71.666 33.638C71.0453 33.1313 70.203 32.878 69.139 32.878C68.189 32.878 67.3593 33.0997 66.65 33.543C65.9407 33.9737 65.3897 34.6007 64.997 35.424C64.617 36.2347 64.427 37.21 64.427 38.35C64.427 39.49 64.617 40.4717 64.997 41.295C65.3897 42.1057 65.9407 42.7327 66.65 43.176C67.3593 43.6067 68.189 43.822 69.139 43.822C70.203 43.822 71.0453 43.5813 71.666 43.1C72.2993 42.606 72.7173 41.9537 72.92 41.143H74.687C74.421 42.4223 73.8067 43.423 72.844 44.145C71.894 44.867 70.659 45.228 69.139 45.228ZM80.7808 45V31.7H89.0078V33.011H82.3768V37.647H88.4378V38.939H82.3768V43.689H89.0078V45H80.7808Z" fill="white"/>
</svg>
