<svg width="114" height="114" viewBox="0 0 114 114" fill="none" xmlns="http://www.w3.org/2000/svg">
<path d="M113.5 57C113.5 88.2041 88.2041 113.5 57 113.5C25.7959 113.5 0.5 88.2041 0.5 57C0.5 25.7959 25.7959 0.5 57 0.5C88.2041 0.5 113.5 25.7959 113.5 57Z" fill="#0E0D0B" stroke="#FACE8D"/>
<path d="M82.3487 44.8253C86.875 40.2559 88.007 33.9643 84.873 30.8001C81.7387 27.6359 75.5073 28.779 70.9815 33.3485C66.7006 37.6707 65.4582 43.5321 67.9884 46.8317L62.081 52.796L60.8855 51.5889L32.6532 80.0934L36.0498 83.5231L64.2822 55.0181L63.0868 53.8111L68.9941 47.8468C72.2624 50.4016 78.0678 49.1475 82.3487 44.8253ZM62.1866 55.1037L36.1347 81.4071L34.7494 80.0081L60.8013 53.705L62.1866 55.1037ZM69.5474 46.2731C66.9681 43.6689 68.0628 38.3264 71.9875 34.3639C75.9121 30.4014 81.2036 29.2962 83.7829 31.9003C86.362 34.5046 85.268 39.8473 81.3431 43.8098C77.4184 47.7722 72.1268 48.8774 69.5474 46.2731Z" fill="#FACE8D"/>
<path d="M44.6421 33.344C40.1226 28.7682 33.8997 27.6236 30.7701 30.7922C27.6404 33.9607 28.7711 40.2608 33.2907 44.8366C37.5656 49.1647 43.363 50.4208 46.6266 47.8626L52.5257 53.8351L51.3318 55.0439L79.5249 83.5871L82.9168 80.1534L54.7235 51.6097L53.5298 52.8183L47.6306 46.8458C50.1575 43.5415 48.9171 37.6721 44.6421 33.344ZM54.8082 53.7284L80.8239 80.0676L79.4405 81.4681L53.4248 55.129L54.8082 53.7284ZM46.0741 46.2864C43.4983 48.8942 38.2142 47.7874 34.295 43.8195C30.3758 39.8515 29.2826 34.5017 31.8583 31.894C34.4342 29.2861 39.7184 30.3927 43.6376 34.3607C47.5568 38.3286 48.6499 43.6786 46.0741 46.2864Z" fill="#FACE8D"/>
</svg>
